<?xml version="1.0" encoding="utf-8"?>
<!-- Generator: Adobe Illustrator 22.1.0, SVG Export Plug-In . SVG Version: 6.00 Build 0)  -->
<svg version="1.1" id="Layer_1" xmlns="http://www.w3.org/2000/svg" xmlns:xlink="http://www.w3.org/1999/xlink" x="0px" y="0px"
	 viewBox="0 0 85 85" style="enable-background:new 0 0 85 85;" xml:space="preserve">
<style type="text/css">
	.st0{fill:#E22526;}
	.st1{fill:#CA2227;}
	.st2{fill:#FFFFFF;}
	.st3{fill:#FBCF07;}
</style>
<g>
	<path class="st0" d="M59.6,13.7c0.1,0,0.1,0.1,0.2,0.1C59.7,13.8,59.6,13.7,59.6,13.7z"/>
	<path class="st0" d="M60.6,14.4c0.1,0,0.1,0.1,0.2,0.1C60.7,14.5,60.6,14.4,60.6,14.4z"/>
	<path class="st0" d="M55.3,11.6C55.3,11.6,55.3,11.6,55.3,11.6C55.3,11.6,55.3,11.6,55.3,11.6z"/>
	<path class="st0" d="M54,11.1c0.1,0,0.1,0,0.2,0.1C54.2,11.2,54.1,11.1,54,11.1z"/>
	<path class="st0" d="M70.1,30c0,0,0-0.1,0-0.1C70.1,29.9,70.1,30,70.1,30L70.1,30z"/>
	<path class="st0" d="M69.3,25.9c0.1,0.2,0.1,0.4,0.2,0.6C69.4,26.3,69.3,26.1,69.3,25.9z"/>
	<path class="st0" d="M61.6,15.1c0.1,0,0.1,0.1,0.2,0.1C61.7,15.2,61.7,15.1,61.6,15.1z"/>
	<path class="st0" d="M69.3,50.1c0-0.1,0-0.2,0-0.3c0,0,0,0,0,0C69.3,49.9,69.3,50,69.3,50.1z"/>
	<path class="st0" d="M68.9,24.7c0.1,0.1,0.1,0.3,0.2,0.5C69,25,68.9,24.8,68.9,24.7z"/>
	<polygon class="st0" points="36.6,32.9 37.7,32.9 37.2,31.3 	"/>
	<path class="st0" d="M62.6,15.9C62.6,15.9,62.7,15.9,62.6,15.9C62.7,15.9,62.6,15.9,62.6,15.9z"/>
	<path class="st0" d="M68.4,23.6c0,0.1,0.1,0.1,0.1,0.2C68.5,23.7,68.4,23.6,68.4,23.6z"/>
	<path class="st0" d="M23.3,55.4c2.5,0.7,4.9,0.7,7.2,0.3C27.6,56.1,25.2,55.9,23.3,55.4z"/>
	<path class="st0" d="M50.4,10.1C50.4,10.1,50.4,10.1,50.4,10.1C50.4,10.1,50.4,10.1,50.4,10.1z"/>
	<path class="st0" d="M44.1,9.3C44.1,9.3,44.1,9.3,44.1,9.3C44.1,9.3,44.1,9.3,44.1,9.3z"/>
	<path class="st0" d="M69.9,28.5c0.1,0.3,0.1,0.6,0.1,0.9C70,29.1,69.9,28.8,69.9,28.5z"/>
	<path class="st0" d="M42.8,9.3C42.8,9.3,42.8,9.3,42.8,9.3C42.8,9.3,42.8,9.3,42.8,9.3z"/>
	<path class="st0" d="M49.5,33.2c0.2-0.2,0.3-0.6,0.3-1c0-0.4-0.1-0.7-0.3-1c-0.2-0.2-0.5-0.4-0.9-0.4H48v2.7h0.7
		C49.1,33.6,49.3,33.5,49.5,33.2z"/>
	<path class="st0" d="M69.6,27.1c0.1,0.3,0.1,0.5,0.2,0.8C69.7,27.7,69.7,27.4,69.6,27.1z"/>
	<path class="st0" d="M52.8,10.7c0.1,0,0.2,0,0.2,0.1C52.9,10.8,52.9,10.7,52.8,10.7z"/>
	<path class="st0" d="M51.6,10.4c0.1,0,0.1,0,0.2,0.1C51.7,10.4,51.6,10.4,51.6,10.4z"/>
	<path class="st0" d="M70.2,36.5c0,0.9,0,1.8-0.1,2.7C70.2,38.3,70.2,37.4,70.2,36.5z"/>
	<path class="st0" d="M70.1,39.7c0,1-0.1,2-0.1,2.9C70,41.6,70.1,40.7,70.1,39.7z"/>
	<path class="st0" d="M70,42.9c-0.1,1-0.1,2.1-0.2,3.1C69.8,44.9,69.9,43.9,70,42.9z"/>
	<path class="st0" d="M70.3,32.8c0,1,0,2.1,0,3.1C70.3,34.9,70.3,33.8,70.3,32.8z"/>
	<path class="st0" d="M69.7,46.4c0-0.1,0-0.1,0-0.2C69.7,46.3,69.7,46.3,69.7,46.4L69.7,46.4z"/>
	<path class="st0" d="M70.2,30.9c0-0.3,0-0.6-0.1-0.9l0,0C70.1,30.3,70.2,30.6,70.2,30.9z"/>
	<path class="st0" d="M70.2,31.3c0,0.5,0,1,0,1.5C70.3,32.3,70.3,31.8,70.2,31.3z"/>
	<path class="st1" d="M69.8,27.9c0,0.2,0.1,0.4,0.1,0.5C69.9,28.3,69.8,28.1,69.8,27.9z"/>
	<path class="st1" d="M70,29.4c0,0.2,0.1,0.3,0.1,0.5C70.1,29.7,70.1,29.5,70,29.4z"/>
	<path class="st1" d="M50.4,10.1c0.4,0.1,0.7,0.2,1.1,0.3C51.2,10.3,50.8,10.2,50.4,10.1z"/>
	<path class="st1" d="M51.7,10.4c0.3,0.1,0.7,0.2,1,0.3C52.4,10.6,52.1,10.5,51.7,10.4z"/>
	<path class="st1" d="M68.4,23.6c-0.2-0.5-0.5-1-0.7-1.5c-1.3-2.3-3-4.4-5-6.1C65.1,18,67.1,20.6,68.4,23.6z"/>
	<path class="st1" d="M44.1,9.3c2.1,0.1,4.2,0.3,6.3,0.8C48.4,9.6,46.3,9.4,44.1,9.3z"/>
	<path class="st1" d="M42.9,9.3c0.4,0,0.8,0,1.2,0C43.7,9.3,43.3,9.3,42.9,9.3z"/>
	<path class="st1" d="M26.7,13.3c0,0,0.1,0,0.1,0c4.7-2.7,10.3-4,16-4C37.1,9.3,31.4,10.6,26.7,13.3z"/>
	<path class="st1" d="M53,10.8c0.3,0.1,0.7,0.2,1,0.3C53.7,11,53.4,10.9,53,10.8z"/>
	<path class="st1" d="M61.8,15.2c0.3,0.2,0.5,0.4,0.8,0.7C62.3,15.7,62.1,15.5,61.8,15.2z"/>
	<path class="st1" d="M68.5,23.8c0.1,0.3,0.3,0.6,0.4,0.9C68.7,24.4,68.6,24.1,68.5,23.8z"/>
	<path class="st1" d="M69,25.1c0.1,0.2,0.2,0.5,0.2,0.7C69.2,25.6,69.1,25.4,69,25.1z"/>
	<path class="st1" d="M69.4,26.5c0.1,0.2,0.1,0.4,0.2,0.6C69.6,26.9,69.5,26.7,69.4,26.5z"/>
	<path class="st1" d="M59.7,13.8c0.3,0.2,0.6,0.4,0.9,0.6C60.3,14.2,60,14,59.7,13.8z"/>
	<path class="st1" d="M60.8,14.5c0.3,0.2,0.5,0.4,0.8,0.6C61.3,14.9,61.1,14.7,60.8,14.5z"/>
	<path class="st1" d="M55.3,11.6c1.5,0.6,2.9,1.3,4.3,2.1C58.2,12.9,56.8,12.2,55.3,11.6z"/>
	<path class="st1" d="M54.2,11.2c0.3,0.1,0.7,0.2,1,0.4C54.9,11.4,54.6,11.3,54.2,11.2z"/>
	<path class="st1" d="M69.7,46.1c0,0,0-0.1,0-0.1c0,0.1,0,0.2,0,0.2C69.7,46.2,69.7,46.1,69.7,46.1z"/>
	<path class="st1" d="M70,42.6c0,0.1,0,0.2,0,0.3C70,42.8,70,42.7,70,42.6z"/>
	<path class="st1" d="M70.2,35.9c0,0.2,0,0.4,0,0.6C70.2,36.3,70.2,36.1,70.2,35.9z"/>
	<path class="st1" d="M70.1,39.2c0,0.2,0,0.3,0,0.5C70.1,39.5,70.1,39.4,70.1,39.2z"/>
	<path class="st1" d="M70.2,30.9c0,0.1,0,0.3,0,0.4C70.2,31.2,70.2,31,70.2,30.9z"/>
	<path class="st2" d="M23.4,20c-0.7-0.5-1.6-0.3-2,0.4c-0.9,1.3-1.6,2.8-2.1,4.5c-0.4,1.5-0.6,3.2-0.6,5.1c0,0.8,0.7,1.4,1.5,1.4
		c0.8,0,1.4-0.7,1.4-1.5c0-1.6,0.2-3,0.5-4.2c0.4-1.4,1-2.6,1.7-3.7C24.3,21.3,24.1,20.4,23.4,20z"/>
	<path class="st2" d="M27,15.3c-0.3,0.2-0.7,0.4-1.1,0.6c-0.3,0.2-0.7,0.4-1.1,0.7c-0.6,0.5-0.8,1.4-0.3,2c0.5,0.6,1.4,0.8,2,0.3
		c0.3-0.2,0.6-0.4,0.9-0.6c0.3-0.2,0.6-0.4,0.9-0.5c0.7-0.4,1-1.3,0.6-2C28.6,15.1,27.8,14.9,27,15.3z"/>
	<polygon class="st3" points="45.9,29.5 44,29.5 42.9,33.1 41.7,29.5 39.8,29.5 41.9,35 43.8,35 	"/>
	<path class="st3" d="M50.2,34.7c0.5-0.2,0.8-0.5,1.1-1c0.3-0.4,0.4-0.9,0.4-1.5c0-0.5-0.1-1-0.4-1.4c-0.2-0.4-0.6-0.7-1-1
		c-0.4-0.2-1-0.3-1.6-0.3h-2.5V35h2.4C49.2,35,49.8,34.9,50.2,34.7z M48,30.9h0.6c0.4,0,0.6,0.1,0.9,0.4c0.2,0.2,0.3,0.6,0.3,1
		c0,0.4-0.1,0.7-0.3,1c-0.2,0.2-0.5,0.4-0.8,0.4H48V30.9z"/>
	<path class="st2" d="M30.6,55.8c1.4-0.1,2.7-0.5,3.8-0.9C33.2,55.3,31.9,55.6,30.6,55.8C30.6,55.8,30.6,55.8,30.6,55.8z"/>
	<path class="st2" d="M22.5,55.2c0.3,0.1,0.5,0.2,0.8,0.2c-0.2-0.1-0.5-0.1-0.7-0.2C22.6,55.2,22.5,55.2,22.5,55.2z"/>
	<path class="st3" d="M16.1,48.5C16,47.7,16,47,15.9,46.2c-0.4-4.5-0.5-9-0.5-13.4c0-0.9,0.1-1.8,0.1-2.7l-2.4-8L3,17.3l7.9,15.7
		l-4.5-0.7L15,46.6c0,0,0.1,1.9,1.4,4C16.3,49.9,16.2,49.2,16.1,48.5z"/>
	<path class="st3" d="M40.2,34.6l-2.1-5.1h-1.9L34,35h1.9l0.3-0.8h2.1l0.3,0.8h0.9h1L40.2,34.6z M36.6,32.9l0.6-1.6l0.6,1.6H36.6z"
		/>
	<path class="st2" d="M54.7,55.8c0.3,0,0.5,0,0.8,0.1c-2-0.3-4-0.8-5.7-1.5C51.2,55.1,52.8,55.6,54.7,55.8z"/>
	<path class="st3" d="M82.6,17.3l-10.1,4.8L70.1,30c0,0.3,0.1,0.6,0.1,0.9c0,0.1,0,0.3,0,0.4c0,0.5,0,1,0,1.5c0,1,0,2.1,0,3.1
		c0,0.2,0,0.4,0,0.6c0,0.9,0,1.8-0.1,2.7c0,0.2,0,0.3,0,0.5c0,1-0.1,2-0.1,2.9c0,0.1,0,0.2,0,0.3c-0.1,1-0.1,2.1-0.2,3.1
		c0,0,0,0.1,0,0.1c0,0,0,0.1,0,0.1c0,0.1,0,0.1,0,0.2c0,0.5-0.1,0.9-0.1,1.4c0,0.2,0,0.5-0.1,0.7c0,0.1,0,0.3,0,0.4
		c0,0.3-0.1,0.6-0.1,0.9c0.5-1,0.7-1.8,0.8-2.4l9-15l-4.5,0.7L82.6,17.3z"/>
	<path class="st0" d="M65.7,24.2c-6.3-13.7-25.5-13.9-25.5-13.9s-6.6,0.1-13.4,2.9c-6,3.4-10.5,9-11.3,16.8
		c-0.1,0.9-0.1,1.8-0.1,2.7c0,4.4,0.1,8.9,0.5,13.4c0.1,0.8,0.1,1.5,0.2,2.3c0.1,0.7,0.2,1.4,0.2,2.2c1,1.7,2.9,3.6,6.1,4.6
		c0.1,0,0.1,0,0.1,0c0.2,0.1,0.5,0.1,0.7,0.2c1.9,0.5,4.3,0.6,7.2,0.3c1.4-0.2,2.7-0.5,3.9-0.9c4.9-1.6,8.4-4.4,8.4-4.4
		s2.8,2.3,7,3.9c1.7,0.7,3.6,1.2,5.7,1.5c5.4,0.4,8.8-0.8,11-2.5c0.4-2.7,0.7-5.4,0.8-8.2c0-0.7,0.1-1.4,0.1-2.1
		c0-0.7,0.1-1.4,0.1-2.1c0-0.9,0-1.9,0.1-2.8c0-1.4,0-2.8,0-4.2C67.7,30.2,66.9,26.9,65.7,24.2z M46.2,29.5h2.5
		c0.6,0,1.1,0.1,1.6,0.3c0.4,0.2,0.8,0.5,1,1c0.2,0.4,0.4,0.9,0.4,1.4c0,0.6-0.1,1-0.4,1.5c-0.3,0.4-0.6,0.7-1.1,1
		c-0.5,0.2-1,0.3-1.6,0.3h-2.4V29.5z M24.9,16.6c0.4-0.3,0.7-0.5,1.1-0.7c0.4-0.3,0.8-0.5,1.1-0.6c0.7-0.4,1.6-0.1,2,0.6
		c0.4,0.7,0.1,1.6-0.6,2c-0.3,0.2-0.6,0.3-0.9,0.5c-0.3,0.2-0.6,0.4-0.9,0.6c-0.6,0.5-1.6,0.3-2-0.3C24.1,18,24.3,17.1,24.9,16.6z
		 M18.7,30c-0.1-1.9,0.2-3.6,0.6-5.1c0.5-1.8,1.3-3.2,2.1-4.5c0.5-0.6,1.3-0.8,2-0.4c0.6,0.5,0.8,1.4,0.4,2c-0.7,1-1.3,2.3-1.7,3.7
		c-0.4,1.3-0.6,2.7-0.5,4.2c0,0.8-0.6,1.5-1.4,1.5C19.4,31.4,18.7,30.8,18.7,30z M21.6,43.5c-0.5-1.2-0.9-2.6-1.1-4.3
		c2.7-0.2,5.5,0.3,8,1c6.1,1.9,11,5.6,11,5.6C30.9,49.1,24.5,50.8,21.6,43.5z M39.4,35h-0.9l-0.3-0.8h-2.1L35.8,35H34l2.3-5.5h1.9
		l2.1,5.1l0.2,0.4H39.4z M41.9,35l-2.1-5.5h1.9l1.1,3.6l1.1-3.6h1.9L43.8,35H41.9z M46.2,45.8c0,0,4.8-3.6,10.8-5.5
		c2.6-0.8,5.5-1.3,8.2-1.1c-0.3,1.8-0.7,3.3-1.2,4.5C61.1,50.8,54.7,49.1,46.2,45.8z"/>
	<path class="st2" d="M69.4,49.8C69.4,49.8,69.4,49.8,69.4,49.8c0-0.3,0.1-0.6,0.1-0.9C69.4,49.2,69.4,49.5,69.4,49.8z"/>
	<path class="st2" d="M69.6,47.8c0-0.5,0.1-0.9,0.1-1.4l0,0C69.7,46.8,69.6,47.3,69.6,47.8z"/>
	<path class="st2" d="M69.5,48.9c0-0.1,0-0.3,0-0.4l0,0C69.5,48.6,69.5,48.7,69.5,48.9z"/>
	<path class="st2" d="M69.5,48.5c0-0.2,0-0.5,0.1-0.7C69.6,48,69.5,48.2,69.5,48.5L69.5,48.5z"/>
	<path class="st1" d="M70.2,31.3c0-0.1,0-0.3,0-0.4c0-0.3,0-0.6-0.1-0.9c0-0.1,0-0.1,0-0.2c0-0.2,0-0.3-0.1-0.5
		c0-0.3-0.1-0.6-0.1-0.9c0-0.2-0.1-0.4-0.1-0.5c-0.1-0.3-0.1-0.5-0.2-0.8c-0.1-0.2-0.1-0.4-0.2-0.6c-0.1-0.2-0.1-0.4-0.2-0.6
		c-0.1-0.3-0.2-0.5-0.2-0.7c-0.1-0.2-0.1-0.3-0.2-0.5c-0.1-0.3-0.2-0.6-0.4-0.9c0-0.1-0.1-0.1-0.1-0.2c-1.3-3-3.3-5.5-5.7-7.6
		c0,0-0.1-0.1-0.1-0.1c-0.3-0.2-0.5-0.4-0.8-0.7c-0.1,0-0.1-0.1-0.2-0.1c-0.3-0.2-0.5-0.4-0.8-0.6c-0.1,0-0.1-0.1-0.2-0.1
		c-0.3-0.2-0.6-0.4-0.9-0.6c-0.1,0-0.1-0.1-0.2-0.1c-1.3-0.8-2.8-1.5-4.3-2.1c0,0,0,0,0,0c-0.3-0.1-0.7-0.3-1-0.4
		c-0.1,0-0.1,0-0.2-0.1c-0.3-0.1-0.7-0.2-1-0.3c-0.1,0-0.2,0-0.2-0.1c-0.3-0.1-0.7-0.2-1-0.3c-0.1,0-0.1,0-0.2-0.1
		c-0.4-0.1-0.7-0.2-1.1-0.3c0,0,0,0,0,0c-2.1-0.5-4.2-0.7-6.3-0.8c0,0-0.1,0-0.1,0c-0.4,0-0.8,0-1.2,0c0,0-0.1,0-0.1,0
		c-5.6,0-11.3,1.3-16,4c6.8-2.9,13.4-2.9,13.4-2.9s19.1,0.2,25.5,13.9c1.3,2.7,2,5.9,2,9.8c0,1.4,0,2.8,0,4.2c0,0.9,0,1.9-0.1,2.8
		c0,0.7-0.1,1.4-0.1,2.1c0,0.7-0.1,1.4-0.1,2.1c-0.2,2.7-0.5,5.5-0.8,8.2c1.4-1.1,2.3-2.4,2.9-3.6c0-0.3,0.1-0.6,0.1-0.9
		c0-0.1,0-0.3,0-0.4c0-0.2,0.1-0.5,0.1-0.7c0-0.5,0.1-0.9,0.1-1.4c0-0.1,0-0.1,0-0.2c0-0.1,0-0.2,0-0.2c0.1-1,0.2-2.1,0.2-3.1
		c0-0.1,0-0.2,0-0.3c0.1-1,0.1-2,0.1-2.9c0-0.2,0-0.3,0-0.5c0-0.9,0.1-1.8,0.1-2.7c0-0.2,0-0.4,0-0.6c0-1.1,0-2.1,0-3.1
		C70.3,32.3,70.3,31.8,70.2,31.3z"/>
</g>
</svg>
