<?xml version="1.0" encoding="utf-8"?>
<!-- Generator: Adobe Illustrator 22.1.0, SVG Export Plug-In . SVG Version: 6.00 Build 0)  -->
<svg version="1.1" id="Layer_1" xmlns="http://www.w3.org/2000/svg" xmlns:xlink="http://www.w3.org/1999/xlink" x="0px" y="0px"
	 viewBox="0 0 85 85" style="enable-background:new 0 0 85 85;" xml:space="preserve">
<style type="text/css">
	.st0{fill:#313131;}
	.st1{fill:#242424;}
	.st2{fill:#FBCF07;}
	.st3{fill:#DEB525;}
	.st4{fill:#FFFFFF;}
</style>
<g>
	<g>
		<path class="st0" d="M45.3,43.9c9.3-4.9,13.7-18.1,13.7-18.1l4.4-3.8c-4.8-8-14.4-12-23.9-12c-5.5,0-11.1,1.4-15.7,4.1
			c-1.9,1.5-3.6,3.4-4.9,5.5l1,0.8l6.3,5.5c0,0,4.4,13.2,13.7,18.1c0,0,2.8,7.1,1.6,14.7l1.2,2.4l1.1-2.4
			C42.5,50.9,45.3,43.9,45.3,43.9z M46.1,29.5c0.2-0.4,0.6-0.7,1-1c0.4-0.2,0.9-0.3,1.5-0.3c0.5,0,1,0.1,1.5,0.3
			c0.4,0.2,0.8,0.6,1,1c0.2,0.4,0.4,0.9,0.4,1.4c0,0.5-0.1,1-0.4,1.4c-0.2,0.4-0.6,0.7-1,1c-0.4,0.2-0.9,0.4-1.5,0.4
			c-0.5,0-1-0.1-1.5-0.4c-0.4-0.2-0.8-0.6-1-1c-0.2-0.4-0.4-0.9-0.4-1.4C45.7,30.4,45.8,30,46.1,29.5z M30.2,16
			c-0.8,0.5-1.6,1.3-2.4,2.1c-0.8,0.8-1.5,1.9-2.1,3.1c-0.4,0.8-1.4,1.1-2.2,0.6c-0.8-0.4-1.1-1.4-0.6-2.2c0.8-1.5,1.7-2.7,2.5-3.7
			c0.9-1,1.9-1.9,3-2.6c0.7-0.5,1.7-0.3,2.2,0.4C31.1,14.5,31,15.5,30.2,16z M32.4,12.9c-0.3-0.9,0.3-1.7,1.1-2
			c0.6-0.1,1-0.3,1.4-0.3c0.5-0.1,1-0.2,1.4-0.2c0.9-0.1,1.7,0.5,1.8,1.4c0.1,0.9-0.6,1.7-1.4,1.8c-0.3,0-0.7,0.1-1.2,0.2
			c-0.4,0.1-0.8,0.2-1.1,0.3C33.5,14.3,32.7,13.8,32.4,12.9z M35.5,31.5c0.1,0.2,0.2,0.3,0.4,0.4c0.2,0.1,0.4,0.2,0.6,0.2
			c0.2,0,0.4-0.1,0.6-0.2c0.2-0.1,0.4-0.3,0.6-0.4l1,1.1c-0.3,0.3-0.6,0.6-1.1,0.8c-0.4,0.2-0.8,0.3-1.2,0.3c-0.5,0-1-0.1-1.4-0.4
			c-0.4-0.2-0.7-0.6-1-1c-0.2-0.4-0.4-0.9-0.4-1.4c0-0.5,0.1-1,0.4-1.4c0.2-0.4,0.6-0.7,1-1c0.4-0.2,0.9-0.3,1.5-0.3
			c0.4,0,0.8,0.1,1.2,0.3c0.4,0.2,0.7,0.4,1,0.7l-1,1.2c-0.2-0.2-0.3-0.4-0.6-0.5c-0.2-0.1-0.4-0.2-0.6-0.2c-0.2,0-0.4,0.1-0.6,0.2
			c-0.2,0.1-0.3,0.3-0.4,0.4c-0.1,0.2-0.1,0.4-0.1,0.6C35.4,31.1,35.4,31.4,35.5,31.5z M41.5,33l-1-2.3v2.9H39v-5.2h1.8l1.3,2.7
			l1.3-2.7h1.8v5.2h-1.5v-2.9l-1,2.3H41.5z"/>
		<path class="st1" d="M63.3,22l1.9-1.7l0.9-0.8C61.3,11.7,51.9,7.8,42.5,7.8c-0.2,0-0.4,0-0.6,0c-0.1,0-0.3,0-0.4,0
			c-0.1,0-0.2,0-0.3,0c-0.2,0-0.4,0-0.6,0c0,0,0,0-0.1,0c-6.2,0.3-12.3,2.4-16.9,6.1c4.6-2.7,10.2-4.1,15.7-4.1
			C48.9,10,58.5,14,63.3,22z"/>
		<path class="st2" d="M66.2,19.5l-0.9,0.8L63.3,22l-4.4,3.8c0,0-4.4,13.2-13.7,18.1c0,0-2.8,7.1-1.6,14.7c0,0,11-7.7,19-5
			c0.2,0.1,0.3,0.1,0.5,0.2l2.3-0.5c0,0,0,0,0,0l-2.2,0.5c0.9-0.9,1.7-1.8,2.5-2.9c1.2-1.6,2.3-3.4,3.3-5.2c0,0,0,0,0,0
			c6.8-12.6,8.4-29.5,8.7-35.4L66.2,19.5z M51.8,50.9c-0.5,0.1-0.9,0.1-1.4,0.2c-0.7,0.1-1.5,0.2-2.2,0.2c0,0,2.1-13.1,18.4-12.3
			C65.6,44.1,61.5,49.3,51.8,50.9z"/>
		<path class="st2" d="M39.8,43.9c-9.3-4.9-13.7-18.1-13.7-18.1l-6.3-5.5l-1-0.8L2.7,6.4c0,0,0.6,30.3,13.8,44.9
			c0.5,0.5,0.9,1,1.4,1.5l3.9,0.9c0.2-0.1,0.3-0.1,0.5-0.2c8-2.7,19,5,19,5C42.5,50.9,39.8,43.9,39.8,43.9z M33.2,50.9
			c-9.7-1.6-13.9-6.8-14.7-11.9c14.9-0.7,17.9,10.1,18.4,12c0,0.2,0.1,0.3,0.1,0.3C35.6,51.2,34.4,51.1,33.2,50.9z"/>
		<path class="st3" d="M77.8,10.1c-0.3,5.9-1.9,22.8-8.7,35.4c0,0,0,0,0,0c-1,1.8-2.1,3.6-3.3,5.2c-0.8,1-1.6,2-2.5,2.9l2.2-0.5
			l1.6-0.4c0.5-0.5,0.9-0.9,1.4-1.4c0,0,0,0,0,0C80.6,37.8,82.1,11.1,82.3,7c0,0,0,0,0,0c0-0.1,0-0.1,0-0.2c0,0,0,0,0,0
			c0,0,0-0.1,0-0.1c0,0,0,0,0,0c0,0,0-0.1,0-0.1c0,0,0,0,0-0.1c0,0,0,0,0,0c0,0,0,0,0,0L77.8,10.1z"/>
		<path class="st2" d="M35.9,29.8c0.2-0.1,0.4-0.2,0.6-0.2c0.2,0,0.4,0.1,0.6,0.2c0.2,0.1,0.4,0.3,0.6,0.5l1-1.2
			c-0.3-0.3-0.6-0.5-1-0.7c-0.4-0.2-0.8-0.3-1.2-0.3c-0.5,0-1,0.1-1.5,0.3c-0.4,0.2-0.8,0.6-1,1c-0.2,0.4-0.4,0.9-0.4,1.4
			c0,0.5,0.1,1,0.4,1.4c0.2,0.4,0.6,0.7,1,1c0.4,0.2,0.9,0.4,1.4,0.4c0.4,0,0.8-0.1,1.2-0.3c0.4-0.2,0.8-0.4,1.1-0.8l-1-1.1
			c-0.2,0.2-0.4,0.3-0.6,0.4c-0.2,0.1-0.4,0.2-0.6,0.2c-0.2,0-0.4-0.1-0.6-0.2c-0.2-0.1-0.3-0.3-0.4-0.4c-0.1-0.2-0.1-0.4-0.1-0.6
			c0-0.2,0-0.5,0.1-0.6C35.6,30.1,35.7,29.9,35.9,29.8z"/>
		<polygon class="st2" points="43.7,33.6 45.2,33.6 45.2,28.3 43.4,28.3 42.1,31.1 40.8,28.3 39,28.3 39,33.6 40.5,33.6 40.5,30.7 
			41.5,33 42.7,33 43.7,30.7 		"/>
		<path class="st2" d="M47.1,33.3c0.4,0.2,0.9,0.4,1.5,0.4c0.5,0,1-0.1,1.5-0.4c0.4-0.2,0.8-0.6,1-1c0.2-0.4,0.4-0.9,0.4-1.4
			c0-0.5-0.1-1-0.4-1.4c-0.2-0.4-0.6-0.7-1-1c-0.4-0.2-0.9-0.3-1.5-0.3c-0.5,0-1,0.1-1.5,0.3c-0.4,0.2-0.8,0.6-1,1
			c-0.2,0.4-0.4,0.9-0.4,1.4c0,0.5,0.1,1,0.4,1.4C46.3,32.8,46.7,33.1,47.1,33.3z M47.6,30.3c0.1-0.2,0.2-0.3,0.4-0.5
			c0.2-0.1,0.4-0.2,0.6-0.2c0.2,0,0.4,0.1,0.5,0.2c0.2,0.1,0.3,0.3,0.4,0.5c0.1,0.2,0.1,0.4,0.1,0.7c0,0.2,0,0.5-0.1,0.7
			c-0.1,0.2-0.2,0.4-0.4,0.5c-0.2,0.1-0.3,0.2-0.5,0.2c-0.2,0-0.4-0.1-0.6-0.2c-0.2-0.1-0.3-0.3-0.4-0.5c-0.1-0.2-0.2-0.4-0.2-0.7
			C47.5,30.7,47.5,30.5,47.6,30.3z"/>
	</g>
	<path class="st0" d="M48,32.1c0.2,0.1,0.4,0.2,0.6,0.2c0.2,0,0.4-0.1,0.5-0.2c0.2-0.1,0.3-0.3,0.4-0.5c0.1-0.2,0.1-0.4,0.1-0.7
		c0-0.2,0-0.5-0.1-0.7c-0.1-0.2-0.2-0.3-0.4-0.5c-0.2-0.1-0.3-0.2-0.5-0.2c-0.2,0-0.4,0.1-0.6,0.2c-0.2,0.1-0.3,0.3-0.4,0.5
		c-0.1,0.2-0.2,0.4-0.2,0.7c0,0.2,0.1,0.5,0.2,0.7C47.7,31.8,47.9,32,48,32.1z"/>
	<g>
		<path class="st4" d="M38.1,11.8c-0.1-0.9-0.9-1.5-1.8-1.4c-0.4,0-0.8,0.1-1.4,0.2c-0.4,0.1-0.8,0.2-1.4,0.3
			c-0.8,0.3-1.4,1.1-1.1,2c0.2,0.8,1.1,1.4,1.9,1.1c0.3-0.1,0.8-0.2,1.1-0.3c0.5-0.1,0.8-0.2,1.2-0.2C37.6,13.5,38.2,12.7,38.1,11.8
			z"/>
		<path class="st4" d="M28.4,13.4c-1.1,0.7-2,1.6-3,2.6c-0.9,1-1.8,2.2-2.5,3.7c-0.4,0.8-0.1,1.7,0.6,2.2c0.8,0.4,1.8,0.1,2.2-0.6
			c0.6-1.2,1.4-2.2,2.1-3.1c0.8-0.8,1.6-1.6,2.4-2.1c0.7-0.5,0.9-1.5,0.4-2.2C30.1,13,29.1,12.9,28.4,13.4z"/>
	</g>
</g>
</svg>
