<?xml version="1.0" encoding="utf-8"?>
<!-- Generator: Adobe Illustrator 22.1.0, SVG Export Plug-In . SVG Version: 6.00 Build 0)  -->
<svg version="1.1" id="Layer_1" xmlns="http://www.w3.org/2000/svg" xmlns:xlink="http://www.w3.org/1999/xlink" x="0px" y="0px"
	 viewBox="0 0 85 85" style="enable-background:new 0 0 85 85;" xml:space="preserve">
<style type="text/css">
	.st0{fill:none;}
	.st1{fill:#2B296E;}
	.st2{fill:#FFFFFF;}
	.st3{fill:#804A96;}
	.st4{fill:#602D8B;}
	.st5{fill:#9964A8;}
</style>
<g>
	<path class="st0" d="M41.1,46.4c-0.2-0.1-0.5-0.2-0.7-0.3C40.7,46.2,40.9,46.3,41.1,46.4z"/>
	<path class="st0" d="M40.1,45.9c-0.2-0.1-0.5-0.2-0.7-0.3C39.6,45.7,39.9,45.8,40.1,45.9z"/>
	<path class="st0" d="M42.5,47c-0.4-0.2-0.7-0.3-1.1-0.5C41.8,46.7,42.1,46.9,42.5,47z"/>
	<path class="st0" d="M43.6,46.6c-0.3,0.2-0.7,0.3-1.1,0.5C42.9,46.9,43.2,46.7,43.6,46.6z"/>
	<path class="st0" d="M39.1,45.4c-0.2-0.1-0.5-0.2-0.7-0.4C38.7,45.2,38.9,45.3,39.1,45.4z"/>
	<path class="st0" d="M36.4,43.9c-0.3-0.2-0.6-0.4-0.8-0.5C35.8,43.5,36.1,43.7,36.4,43.9z"/>
	<path class="st0" d="M37.3,44.4c-0.3-0.2-0.5-0.3-0.8-0.5C36.8,44.1,37,44.2,37.3,44.4z"/>
	<path class="st0" d="M38.2,44.9c-0.2-0.1-0.5-0.3-0.7-0.4C37.7,44.6,37.9,44.8,38.2,44.9z"/>
	<path class="st0" d="M44.6,46.1c-0.2,0.1-0.5,0.2-0.7,0.3C44.1,46.3,44.3,46.2,44.6,46.1z"/>
	<path class="st0" d="M47.5,44.5c-0.2,0.1-0.5,0.3-0.7,0.4C47.1,44.8,47.3,44.6,47.5,44.5z"/>
	<path class="st0" d="M48.5,43.9c-0.2,0.2-0.5,0.3-0.8,0.5C48,44.2,48.2,44.1,48.5,43.9z"/>
	<path class="st0" d="M49.4,43.3c-0.3,0.2-0.5,0.4-0.8,0.5C48.9,43.7,49.2,43.5,49.4,43.3z"/>
	<path class="st0" d="M46.6,45c-0.2,0.1-0.5,0.2-0.7,0.4C46.1,45.3,46.3,45.2,46.6,45z"/>
	<path class="st0" d="M28.9,37.8c-2-2.1-3.6-4.2-4.8-6.3c0,0,0,0,0,0c2.4,4,6,8.2,11.5,11.8C32.9,41.6,30.7,39.7,28.9,37.8z"/>
	<path class="st0" d="M45.6,45.6c-0.2,0.1-0.4,0.2-0.7,0.3C45.1,45.8,45.4,45.7,45.6,45.6z"/>
	<path class="st1" d="M25,27.1c0.6,0.4,0.8,1.3,0.4,1.9c-0.5,0.7-1,1.6-1.3,2.5c1.2,2.1,2.8,4.2,4.8,6.3l13.6-8.5l13.6,8.5
		c3.8-3.9,6-8.1,7.4-11.5c0,0-6.1-9.8-21-9.8s-21,9.8-21,9.8c0.3,0.7,0.6,1.5,1,2.2c0.2-0.4,0.4-0.7,0.6-1
		C23.6,26.8,24.4,26.6,25,27.1z M26.5,23.9c0.4-0.3,0.7-0.5,1-0.7c0.4-0.3,0.7-0.5,1-0.6c0.7-0.4,1.5-0.1,1.9,0.5
		c0.4,0.7,0.1,1.5-0.5,1.9c-0.3,0.1-0.6,0.3-0.9,0.5c-0.3,0.2-0.6,0.4-0.8,0.6c-0.6,0.4-1.5,0.3-1.9-0.3
		C25.7,25.2,25.9,24.3,26.5,23.9z"/>
	<path class="st2" d="M24.1,31.5c-0.6-1-1.2-2-1.6-3c0,0,0,0,0,0C22.9,29.4,23.5,30.5,24.1,31.5C24.1,31.5,24.1,31.5,24.1,31.5z"/>
	<path class="st2" d="M28.2,26.1c0.3-0.2,0.5-0.4,0.8-0.6c0.3-0.2,0.6-0.4,0.9-0.5c0.7-0.4,0.9-1.2,0.5-1.9
		c-0.4-0.7-1.2-0.9-1.9-0.5c-0.3,0.1-0.7,0.4-1,0.6c-0.3,0.2-0.7,0.4-1,0.7c-0.6,0.4-0.7,1.3-0.3,1.9C26.7,26.4,27.5,26.5,28.2,26.1
		z"/>
	<path class="st2" d="M25.4,29c0.4-0.6,0.3-1.5-0.4-1.9c-0.7-0.4-1.5-0.3-1.9,0.4c-0.2,0.3-0.4,0.7-0.6,1c0.5,1,1,2,1.6,3
		C24.4,30.5,24.9,29.7,25.4,29z"/>
	<path class="st3" d="M65.6,18.1c0,0-1,15.2-16.2,25.2c0,0,0,0,0,0c-0.3,0.2-0.5,0.4-0.8,0.5c0,0-0.1,0-0.1,0.1
		c-0.2,0.2-0.5,0.3-0.8,0.5c-0.1,0-0.1,0.1-0.2,0.1c-0.2,0.1-0.5,0.3-0.7,0.4c-0.1,0-0.2,0.1-0.3,0.1c-0.2,0.1-0.4,0.2-0.7,0.4
		c-0.1,0.1-0.2,0.1-0.3,0.2c-0.2,0.1-0.4,0.2-0.7,0.3c-0.1,0.1-0.2,0.1-0.3,0.2c-0.2,0.1-0.5,0.2-0.7,0.3c-0.1,0-0.2,0.1-0.3,0.1
		c-0.3,0.2-0.7,0.3-1.1,0.5c-0.4-0.2-0.7-0.3-1.1-0.5c-0.1,0-0.2-0.1-0.3-0.1c-0.2-0.1-0.5-0.2-0.7-0.3c-0.1-0.1-0.2-0.1-0.3-0.2
		c-0.2-0.1-0.5-0.2-0.7-0.3c-0.1-0.1-0.2-0.1-0.3-0.2c-0.2-0.1-0.5-0.2-0.7-0.4c-0.1,0-0.2-0.1-0.3-0.1c-0.2-0.1-0.5-0.3-0.7-0.4
		c-0.1,0-0.1-0.1-0.2-0.1c-0.3-0.2-0.5-0.3-0.8-0.5c0,0-0.1,0-0.1-0.1c-0.3-0.2-0.6-0.4-0.8-0.5c0,0,0,0,0,0
		c-5.4-3.6-9.1-7.8-11.5-11.8c-0.6-1-1.2-2-1.6-3c-2.8-5.8-3.1-10.4-3.1-10.4c-21.2,34.8,3.2,50.5,3.2,50.5
		c13.8-4.7,19.9-13.8,19.9-13.8s6.1,9.2,19.9,13.8C62.4,68.6,86.8,52.9,65.6,18.1z M22.5,61.3C9,52,17.9,28.5,17.9,28.5
		c-1.5,10.4,2,19.4,2,19.4c11.5-4,19.3,3.6,19.3,3.6C32.7,60.6,22.5,61.3,22.5,61.3z M62.5,61.3c0,0-10.2-0.7-16.7-9.8
		c0,0,7.8-7.6,19.3-3.6c0,0,3.6-9,2-19.4C67.1,28.5,76,52,62.5,61.3z"/>
	<path class="st4" d="M28.9,37.8c1.8,1.9,4,3.8,6.7,5.5c0,0,0,0,0,0c0.3,0.2,0.5,0.4,0.8,0.5c0,0,0.1,0,0.1,0.1
		c0.2,0.2,0.5,0.3,0.8,0.5c0.1,0,0.1,0.1,0.2,0.1c0.2,0.1,0.5,0.3,0.7,0.4c0.1,0,0.2,0.1,0.3,0.1c0.2,0.1,0.4,0.2,0.7,0.4
		c0.1,0.1,0.2,0.1,0.3,0.2c0.2,0.1,0.4,0.2,0.7,0.3c0.1,0.1,0.2,0.1,0.3,0.2c0.2,0.1,0.5,0.2,0.7,0.3c0.1,0,0.2,0.1,0.3,0.1
		c0.3,0.2,0.7,0.3,1.1,0.5c0.4-0.2,0.7-0.3,1.1-0.5c0.1,0,0.2-0.1,0.3-0.1c0.2-0.1,0.5-0.2,0.7-0.3c0.1-0.1,0.2-0.1,0.3-0.2
		c0.2-0.1,0.5-0.2,0.7-0.3c0.1-0.1,0.2-0.1,0.3-0.2c0.2-0.1,0.5-0.2,0.7-0.4c0.1,0,0.2-0.1,0.3-0.1c0.2-0.1,0.5-0.3,0.7-0.4
		c0.1,0,0.1-0.1,0.2-0.1c0.3-0.2,0.5-0.3,0.8-0.5c0,0,0.1,0,0.1-0.1c0.3-0.2,0.6-0.4,0.8-0.5c0,0,0,0,0,0c2.6-1.7,4.8-3.6,6.7-5.5
		l-13.6-8.5L28.9,37.8z M34.8,38.9c0.1,0.2,0.3,0.4,0.5,0.5c0.2,0.1,0.4,0.2,0.7,0.2c0.2,0,0.5-0.1,0.8-0.2V38h1.7v2.5
		c-0.3,0.2-0.7,0.4-1.2,0.6c-0.5,0.1-0.9,0.2-1.4,0.2c-0.6,0-1.2-0.1-1.6-0.4c-0.5-0.3-0.9-0.6-1.1-1.1c-0.3-0.5-0.4-1-0.4-1.6
		c0-0.6,0.1-1.1,0.4-1.6c0.3-0.5,0.7-0.8,1.2-1.1c0.5-0.3,1.1-0.4,1.7-0.4c0.5,0,0.9,0.1,1.4,0.3c0.5,0.2,0.8,0.4,1.2,0.7l-1.1,1.3
		c-0.2-0.2-0.4-0.3-0.7-0.5c-0.3-0.1-0.5-0.2-0.8-0.2c-0.2,0-0.5,0.1-0.7,0.2c-0.2,0.1-0.4,0.3-0.5,0.5c-0.1,0.2-0.2,0.5-0.2,0.7
		C34.6,38.4,34.7,38.6,34.8,38.9z M46.9,35.2h3c0.5,0,0.9,0.1,1.2,0.2c0.4,0.1,0.6,0.3,0.8,0.5c0.2,0.2,0.3,0.5,0.3,0.8
		c0,0.3-0.1,0.5-0.3,0.8c-0.2,0.2-0.4,0.4-0.7,0.5c0.4,0.1,0.6,0.3,0.8,0.5c0.2,0.3,0.3,0.6,0.3,1c0,0.3-0.1,0.6-0.3,0.9
		c-0.2,0.3-0.5,0.4-0.8,0.6c-0.4,0.1-0.8,0.2-1.2,0.2h-3.1V35.2z M44,35.2h2.1v5.9h-1.7v-3.2l-1.2,2.6h-1.3l-1.2-2.6v3.2h-1.7v-5.9
		h2.1l1.5,3.1L44,35.2z"/>
	<path class="st4" d="M50.1,37.3c0.1-0.1,0.1-0.2,0.1-0.3c0-0.1,0-0.2-0.1-0.3c-0.1-0.1-0.2-0.1-0.3-0.1h-0.9v0.8h0.9
		C49.9,37.4,50,37.4,50.1,37.3z"/>
	<path class="st4" d="M50.4,39.2c0-0.1-0.1-0.2-0.2-0.3c-0.1-0.1-0.3-0.1-0.4-0.1h-0.9v0.9h0.9c0.2,0,0.3,0,0.4-0.1
		C50.3,39.4,50.4,39.3,50.4,39.2z"/>
	<path class="st4" d="M45.9,45.4c-0.1,0.1-0.2,0.1-0.3,0.2C45.7,45.5,45.8,45.5,45.9,45.4z"/>
	<path class="st4" d="M44.9,45.9c-0.1,0.1-0.2,0.1-0.3,0.2C44.7,46,44.8,46,44.9,45.9z"/>
	<path class="st4" d="M46.8,44.9c-0.1,0-0.2,0.1-0.3,0.1C46.7,45,46.7,44.9,46.8,44.9z"/>
	<path class="st4" d="M36.5,43.9c0,0-0.1,0-0.1-0.1C36.4,43.9,36.5,43.9,36.5,43.9z"/>
	<path class="st4" d="M47.7,44.4c-0.1,0-0.1,0.1-0.2,0.1C47.6,44.5,47.7,44.4,47.7,44.4z"/>
	<path class="st4" d="M49.4,43.3C49.4,43.3,49.4,43.3,49.4,43.3C49.4,43.3,49.4,43.3,49.4,43.3z"/>
	<path class="st4" d="M43.9,46.4c-0.1,0-0.2,0.1-0.3,0.1C43.7,46.5,43.8,46.5,43.9,46.4z"/>
	<path class="st4" d="M48.6,43.9c0,0-0.1,0-0.1,0.1C48.5,43.9,48.6,43.9,48.6,43.9z"/>
	<path class="st4" d="M38.4,45c-0.1,0-0.2-0.1-0.3-0.1C38.3,44.9,38.3,45,38.4,45z"/>
	<path class="st4" d="M39.4,45.6c-0.1-0.1-0.2-0.1-0.3-0.2C39.2,45.5,39.3,45.5,39.4,45.6z"/>
	<path class="st4" d="M41.4,46.6c-0.1,0-0.2-0.1-0.3-0.1C41.2,46.5,41.3,46.5,41.4,46.6z"/>
	<path class="st4" d="M37.5,44.5c-0.1,0-0.1-0.1-0.2-0.1C37.3,44.4,37.4,44.5,37.5,44.5z"/>
	<path class="st4" d="M35.6,43.3C35.6,43.3,35.6,43.3,35.6,43.3C35.6,43.3,35.6,43.3,35.6,43.3z"/>
	<path class="st4" d="M40.4,46.1c-0.1-0.1-0.2-0.1-0.3-0.2C40.2,46,40.3,46,40.4,46.1z"/>
	<path class="st1" d="M19.9,47.9c0,0-3.6-9-2-19.4c0,0-8.8,23.5,4.6,32.8c0,0,10.2-0.7,16.7-9.8C39.2,51.5,31.4,43.9,19.9,47.9z
		 M36.1,51.6c0,0-8.5,9.4-15.8,0.7C20.3,52.2,26.4,45.7,36.1,51.6z"/>
	<path class="st1" d="M67.1,28.5c1.5,10.4-2,19.4-2,19.4c-11.5-4-19.3,3.6-19.3,3.6c6.5,9.1,16.7,9.8,16.7,9.8
		C76,52,67.1,28.5,67.1,28.5z M48.9,51.6c9.7-5.8,15.8,0.7,15.8,0.7C57.4,60.9,48.9,51.6,48.9,51.6z"/>
	<path class="st5" d="M35.2,36.9c0.2-0.1,0.4-0.2,0.7-0.2c0.2,0,0.5,0.1,0.8,0.2c0.3,0.1,0.5,0.3,0.7,0.5l1.1-1.3
		c-0.3-0.3-0.7-0.5-1.2-0.7c-0.5-0.2-0.9-0.3-1.4-0.3c-0.6,0-1.2,0.1-1.7,0.4c-0.5,0.3-0.9,0.6-1.2,1.1c-0.3,0.5-0.4,1-0.4,1.6
		c0,0.6,0.1,1.1,0.4,1.6c0.3,0.5,0.7,0.8,1.1,1.1c0.5,0.3,1,0.4,1.6,0.4c0.4,0,0.9-0.1,1.4-0.2c0.5-0.1,0.9-0.3,1.2-0.6V38h-1.7v1.4
		c-0.3,0.1-0.6,0.2-0.8,0.2c-0.3,0-0.5-0.1-0.7-0.2c-0.2-0.1-0.4-0.3-0.5-0.5c-0.1-0.2-0.2-0.5-0.2-0.7c0-0.3,0.1-0.5,0.2-0.7
		C34.9,37.2,35,37,35.2,36.9z"/>
	<polygon class="st5" points="39.1,35.2 39.1,41.1 40.8,41.1 40.8,37.8 41.9,40.5 43.2,40.5 44.4,37.8 44.4,41.1 46.1,41.1 
		46.1,35.2 44,35.2 42.6,38.2 41.1,35.2 	"/>
	<path class="st5" d="M51.3,40.9c0.4-0.1,0.6-0.3,0.8-0.6c0.2-0.3,0.3-0.5,0.3-0.9c0-0.4-0.1-0.7-0.3-1c-0.2-0.3-0.5-0.4-0.8-0.5
		c0.3-0.1,0.5-0.2,0.7-0.5c0.2-0.2,0.3-0.5,0.3-0.8c0-0.3-0.1-0.6-0.3-0.8c-0.2-0.2-0.5-0.4-0.8-0.5c-0.4-0.1-0.8-0.2-1.2-0.2h-3
		v5.9H50C50.5,41.1,50.9,41,51.3,40.9z M48.9,36.6h0.9c0.1,0,0.2,0,0.3,0.1c0.1,0.1,0.1,0.2,0.1,0.3c0,0.1,0,0.2-0.1,0.3
		c-0.1,0.1-0.2,0.1-0.3,0.1h-0.9V36.6z M48.9,39.6v-0.9h0.9c0.2,0,0.3,0,0.4,0.1c0.1,0.1,0.2,0.2,0.2,0.3c0,0.1-0.1,0.3-0.2,0.3
		c-0.1,0.1-0.3,0.1-0.4,0.1H48.9z"/>
</g>
</svg>
