<?xml version="1.0" encoding="utf-8"?>
<!-- Generator: Adobe Illustrator 22.1.0, SVG Export Plug-In . SVG Version: 6.00 Build 0)  -->
<svg version="1.1" id="Layer_1" xmlns="http://www.w3.org/2000/svg" xmlns:xlink="http://www.w3.org/1999/xlink" x="0px" y="0px"
	 viewBox="0 0 85 85" style="enable-background:new 0 0 85 85;" xml:space="preserve">
<style type="text/css">
	.st0{fill:#4FB148;}
	.st1{fill:#3E8E43;}
	.st2{fill:#313131;}
	.st3{fill:#FFFFFF;}
	.st4{fill-rule:evenodd;clip-rule:evenodd;fill:#313131;}
	.st5{fill:none;}
	.st6{fill:#50B248;}
	.st7{fill:#3F8F42;}
	.st8{fill-rule:evenodd;clip-rule:evenodd;fill:#1E1E1E;}
</style>
<g>
	<ellipse class="st0" cx="41.1" cy="28.9" rx="25.4" ry="19.2"/>
	<path class="st1" d="M23.7,16.2v-1.4c-0.2,0.1-0.4,0.3-0.6,0.4v1H23.7z"/>
	<path class="st1" d="M23.4,16.9c-0.3,0-0.5,0.1-0.6,0.2c-0.1,0.2-0.2,0.4-0.2,0.7c0,0.3,0.1,0.5,0.2,0.7c0.1,0.2,0.3,0.2,0.6,0.2
		c0.3,0,0.5-0.1,0.6-0.2c0.1-0.2,0.2-0.4,0.2-0.7c0-0.3-0.1-0.5-0.2-0.7C23.8,17,23.6,16.9,23.4,16.9z M23.6,18.1
		c0,0.1,0,0.1-0.1,0.1c0,0-0.1,0-0.1,0c-0.1,0-0.1,0-0.1,0c0,0-0.1-0.1-0.1-0.1c0-0.1,0-0.2,0-0.3c0-0.1,0-0.2,0-0.3
		c0-0.1,0-0.1,0.1-0.1c0,0,0.1,0,0.1,0c0.1,0,0.1,0,0.1,0c0,0,0.1,0.1,0.1,0.1c0,0.1,0,0.2,0,0.3C23.6,17.9,23.6,18,23.6,18.1z"/>
	<polygon class="st1" points="23.7,21.2 23.7,19.5 22.8,19.5 22.8,19.9 23.1,19.9 23.1,21.2 	"/>
	<path class="st1" d="M23.4,22c-0.3,0-0.5,0.1-0.6,0.2c-0.1,0.2-0.2,0.4-0.2,0.7c0,0.3,0.1,0.5,0.2,0.7c0.1,0.2,0.3,0.2,0.6,0.2
		c0.3,0,0.5-0.1,0.6-0.2c0.1-0.2,0.2-0.4,0.2-0.7c0-0.3-0.1-0.5-0.2-0.7C23.8,22,23.6,22,23.4,22z M23.6,23.2c0,0.1,0,0.1-0.1,0.1
		c0,0-0.1,0-0.1,0c-0.1,0-0.1,0-0.1,0c0,0-0.1-0.1-0.1-0.1c0-0.1,0-0.2,0-0.3c0-0.1,0-0.2,0-0.3c0-0.1,0-0.1,0.1-0.1
		c0,0,0.1,0,0.1,0c0.1,0,0.1,0,0.1,0c0,0,0.1,0.1,0.1,0.1c0,0.1,0,0.2,0,0.3C23.6,23,23.6,23.1,23.6,23.2z"/>
	<polygon class="st1" points="23.7,26.3 23.7,24.5 22.8,24.5 22.8,25 23.1,25 23.1,26.3 	"/>
	<polygon class="st1" points="22.8,27.5 23.1,27.5 23.1,28.8 23.7,28.8 23.7,27 22.8,27 	"/>
	<path class="st1" d="M23.4,29.5c-0.3,0-0.5,0.1-0.6,0.2c-0.1,0.2-0.2,0.4-0.2,0.7c0,0.3,0.1,0.5,0.2,0.7c0.1,0.2,0.3,0.2,0.6,0.2
		c0.3,0,0.5-0.1,0.6-0.2c0.1-0.2,0.2-0.4,0.2-0.7c0-0.3-0.1-0.5-0.2-0.7C23.8,29.6,23.6,29.5,23.4,29.5z M23.6,30.7
		c0,0.1,0,0.1-0.1,0.1c0,0-0.1,0-0.1,0c-0.1,0-0.1,0-0.1,0c0,0-0.1-0.1-0.1-0.1c0-0.1,0-0.2,0-0.3c0-0.1,0-0.2,0-0.3
		c0-0.1,0-0.1,0.1-0.1c0,0,0.1,0,0.1,0c0.1,0,0.1,0,0.1,0c0,0,0.1,0.1,0.1,0.1c0,0.1,0,0.2,0,0.3C23.6,30.6,23.6,30.7,23.6,30.7z"/>
	<polygon class="st1" points="23.7,33.9 23.7,32.1 22.8,32.1 22.8,32.5 23.1,32.5 23.1,33.9 	"/>
	<path class="st1" d="M23.4,34.6c-0.3,0-0.5,0.1-0.6,0.2c-0.1,0.2-0.2,0.4-0.2,0.7c0,0.3,0.1,0.5,0.2,0.7c0.1,0.2,0.3,0.2,0.6,0.2
		c0.3,0,0.5-0.1,0.6-0.2c0.1-0.2,0.2-0.4,0.2-0.7c0-0.3-0.1-0.5-0.2-0.7C23.8,34.7,23.6,34.6,23.4,34.6z M23.6,35.8
		c0,0.1,0,0.1-0.1,0.1c0,0-0.1,0-0.1,0c-0.1,0-0.1,0-0.1,0c0,0-0.1-0.1-0.1-0.1c0-0.1,0-0.2,0-0.3c0-0.1,0-0.2,0-0.3
		c0-0.1,0-0.1,0.1-0.1c0,0,0.1,0,0.1,0c0.1,0,0.1,0,0.1,0c0,0,0.1,0.1,0.1,0.1c0,0.1,0,0.2,0,0.3C23.6,35.6,23.6,35.7,23.6,35.8z"/>
	<polygon class="st1" points="23.7,38.9 23.7,37.1 22.8,37.1 22.8,37.6 23.1,37.6 23.1,38.9 	"/>
	<polygon class="st1" points="22.8,40.1 23.1,40.1 23.1,41.4 23.7,41.4 23.7,39.7 22.8,39.7 	"/>
	<path class="st1" d="M23.4,42.2c-0.3,0-0.5,0.1-0.6,0.2c-0.1,0.2-0.2,0.4-0.2,0.7c0,0.3,0.1,0.5,0.2,0.7c0.1,0.2,0.3,0.2,0.6,0.2
		c0.3,0,0.5-0.1,0.6-0.2c0.1-0.2,0.2-0.4,0.2-0.7c0-0.3-0.1-0.5-0.2-0.7C23.8,42.2,23.6,42.2,23.4,42.2z M23.6,43.4
		c0,0.1,0,0.1-0.1,0.1c0,0-0.1,0-0.1,0c-0.1,0-0.1,0-0.1,0c0,0-0.1-0.1-0.1-0.1c0-0.1,0-0.2,0-0.3c0-0.1,0-0.2,0-0.3
		c0-0.1,0-0.1,0.1-0.1c0,0,0.1,0,0.1,0c0.1,0,0.1,0,0.1,0c0,0,0.1,0.1,0.1,0.1c0,0.1,0,0.2,0,0.3C23.6,43.2,23.6,43.3,23.6,43.4z"/>
	<polygon class="st1" points="22.8,52.7 23.1,52.7 23.1,54.1 23.7,54.1 23.7,52.3 22.8,52.3 	"/>
	<path class="st1" d="M23.5,56.1c0,0-0.1,0-0.1,0c-0.1,0-0.1,0-0.1,0c0,0-0.1-0.1-0.1-0.1c0,0,0,0,0,0c-0.2,0-0.4-0.1-0.6-0.2
		c0,0.2,0.1,0.4,0.2,0.6c0.1,0.2,0.3,0.2,0.6,0.2c0.3,0,0.5-0.1,0.6-0.2c0.1-0.1,0.1-0.1,0.1-0.2C23.9,56.1,23.7,56.1,23.5,56.1
		C23.5,56.1,23.5,56.1,23.5,56.1z"/>
	<path class="st1" d="M24,55c-0.1-0.2-0.3-0.2-0.6-0.2c-0.3,0-0.5,0.1-0.6,0.2c-0.1,0.2-0.2,0.4-0.2,0.7c0,0,0,0.1,0,0.1
		c0.2,0.1,0.4,0.1,0.6,0.2c0-0.1,0-0.2,0-0.3c0-0.1,0-0.2,0-0.3c0-0.1,0-0.1,0.1-0.1c0,0,0.1,0,0.1,0c0.1,0,0.1,0,0.1,0
		c0,0,0.1,0.1,0.1,0.1c0,0.1,0,0.2,0,0.3c0,0.1,0,0.2,0,0.3c0,0,0,0,0,0.1c0.2,0,0.4,0.1,0.6,0.1c0.1-0.1,0.1-0.3,0.1-0.5
		C24.2,55.4,24.1,55.2,24,55z"/>
	<polygon class="st1" points="23.7,59.1 23.7,57.3 22.8,57.3 22.8,57.8 23.1,57.8 23.1,59.1 	"/>
	<path class="st1" d="M17.8,21c0,0.1-0.1,0.2-0.1,0.2h0.1V21z"/>
	<path class="st1" d="M17.5,23.8c0.3,0,0.5-0.1,0.6-0.2c0.1-0.2,0.2-0.4,0.2-0.7c0-0.3-0.1-0.5-0.2-0.7C18,22,17.8,22,17.5,22
		c-0.1,0-0.2,0-0.3,0c-0.2,0.3-0.3,0.6-0.5,1c0,0.2,0.1,0.4,0.2,0.6C17.1,23.7,17.3,23.8,17.5,23.8z M17.4,22.6c0-0.1,0-0.1,0.1-0.1
		c0,0,0.1,0,0.1,0c0.1,0,0.1,0,0.1,0c0,0,0.1,0.1,0.1,0.1c0,0.1,0,0.2,0,0.3c0,0.1,0,0.2,0,0.3c0,0.1,0,0.1-0.1,0.1c0,0-0.1,0-0.1,0
		c-0.1,0-0.1,0-0.1,0c0,0-0.1-0.1-0.1-0.1c0-0.1,0-0.2,0-0.3C17.3,22.8,17.3,22.7,17.4,22.6z"/>
	<polygon class="st1" points="17.2,26.3 17.8,26.3 17.8,24.5 16.9,24.5 16.9,25 17.2,25 	"/>
	<polygon class="st1" points="17.2,28.8 17.8,28.8 17.8,27 16.9,27 16.9,27.5 17.2,27.5 	"/>
	<path class="st1" d="M17.5,29.5c-0.3,0-0.5,0.1-0.6,0.2c-0.1,0.2-0.2,0.4-0.2,0.7c0,0.3,0.1,0.5,0.2,0.7c0.1,0.2,0.3,0.2,0.6,0.2
		c0.3,0,0.5-0.1,0.6-0.2c0.1-0.2,0.2-0.4,0.2-0.7c0-0.3-0.1-0.5-0.2-0.7C18,29.6,17.8,29.5,17.5,29.5z M17.7,30.7
		c0,0.1,0,0.1-0.1,0.1c0,0-0.1,0-0.1,0c-0.1,0-0.1,0-0.1,0c0,0-0.1-0.1-0.1-0.1c0-0.1,0-0.2,0-0.3c0-0.1,0-0.2,0-0.3
		c0-0.1,0-0.1,0.1-0.1c0,0,0.1,0,0.1,0c0.1,0,0.1,0,0.1,0c0,0,0.1,0.1,0.1,0.1c0,0.1,0,0.2,0,0.3C17.8,30.6,17.8,30.7,17.7,30.7z"/>
	<polygon class="st1" points="17.8,33.9 17.8,32.1 16.9,32.1 16.9,32.5 17.2,32.5 17.2,33.9 	"/>
	<path class="st1" d="M17.5,34.6c-0.3,0-0.5,0.1-0.6,0.2c-0.1,0.2-0.2,0.4-0.2,0.7c0,0.3,0.1,0.5,0.2,0.7c0.1,0.2,0.3,0.2,0.6,0.2
		c0.3,0,0.5-0.1,0.6-0.2c0.1-0.2,0.2-0.4,0.2-0.7c0-0.3-0.1-0.5-0.2-0.7C18,34.7,17.8,34.6,17.5,34.6z M17.7,35.8
		c0,0.1,0,0.1-0.1,0.1c0,0-0.1,0-0.1,0c-0.1,0-0.1,0-0.1,0c0,0-0.1-0.1-0.1-0.1c0-0.1,0-0.2,0-0.3c0-0.1,0-0.2,0-0.3
		c0-0.1,0-0.1,0.1-0.1c0,0,0.1,0,0.1,0c0.1,0,0.1,0,0.1,0c0,0,0.1,0.1,0.1,0.1c0,0.1,0,0.2,0,0.3C17.8,35.6,17.8,35.7,17.7,35.8z"/>
	<polygon class="st1" points="17.8,38.9 17.8,37.1 16.9,37.1 16.9,37.6 17.2,37.6 17.2,38.9 	"/>
	<polygon class="st1" points="17.8,46.5 17.8,44.7 16.9,44.7 16.9,45.2 17.2,45.2 17.2,46.5 	"/>
	<path class="st1" d="M17.5,47.2c-0.3,0-0.5,0.1-0.6,0.2c-0.1,0.2-0.2,0.4-0.2,0.7c0,0.3,0.1,0.5,0.2,0.7c0.1,0.2,0.3,0.2,0.6,0.2
		c0.3,0,0.5-0.1,0.6-0.2c0.1-0.2,0.2-0.4,0.2-0.7c0-0.3-0.1-0.5-0.2-0.7C18,47.3,17.8,47.2,17.5,47.2z M17.7,48.4
		c0,0.1,0,0.1-0.1,0.1c0,0-0.1,0-0.1,0c-0.1,0-0.1,0-0.1,0c0,0-0.1-0.1-0.1-0.1c0-0.1,0-0.2,0-0.3c0-0.1,0-0.2,0-0.3
		c0-0.1,0-0.1,0.1-0.1c0,0,0.1,0,0.1,0c0.1,0,0.1,0,0.1,0c0,0,0.1,0.1,0.1,0.1c0,0.1,0,0.2,0,0.3C17.8,48.2,17.8,48.3,17.7,48.4z"/>
	<polygon class="st1" points="17.8,51.5 17.8,49.8 16.9,49.8 16.9,50.2 17.2,50.2 17.2,51.5 	"/>
	<polygon class="st1" points="16.9,52.7 17.2,52.7 17.2,54.1 17.8,54.1 17.8,52.3 16.9,52.3 	"/>
	<path class="st1" d="M17.5,54.8c-0.3,0-0.5,0.1-0.6,0.2c-0.1,0.2-0.2,0.4-0.2,0.7c0,0.3,0.1,0.5,0.2,0.7c0.1,0.2,0.3,0.2,0.6,0.2
		c0.3,0,0.5-0.1,0.6-0.2c0.1-0.2,0.2-0.4,0.2-0.7c0-0.3-0.1-0.5-0.2-0.7C18,54.9,17.8,54.8,17.5,54.8z M17.7,56c0,0.1,0,0.1-0.1,0.1
		c0,0-0.1,0-0.1,0c-0.1,0-0.1,0-0.1,0c0,0-0.1-0.1-0.1-0.1c0-0.1,0-0.2,0-0.3c0-0.1,0-0.2,0-0.3c0-0.1,0-0.1,0.1-0.1
		c0,0,0.1,0,0.1,0c0.1,0,0.1,0,0.1,0c0,0,0.1,0.1,0.1,0.1c0,0.1,0,0.2,0,0.3C17.8,55.8,17.8,55.9,17.7,56z"/>
	<path class="st1" d="M28.6,11.9L28.6,11.9C28.6,11.9,28.6,11.9,28.6,11.9L28.6,11.9z"/>
	<path class="st1" d="M28.9,12.4v1.3h0.6v-1.8h-0.9c0,0,0,0,0,0v0.4H28.9z"/>
	<path class="st1" d="M29.2,14.4c-0.3,0-0.5,0.1-0.6,0.2c-0.1,0.2-0.2,0.4-0.2,0.7c0,0.3,0.1,0.5,0.2,0.7c0.1,0.2,0.3,0.2,0.6,0.2
		c0.3,0,0.5-0.1,0.6-0.2c0.1-0.2,0.2-0.4,0.2-0.7c0-0.3-0.1-0.5-0.2-0.7C29.7,14.5,29.5,14.4,29.2,14.4z M29.4,15.6
		c0,0.1,0,0.1-0.1,0.1c0,0-0.1,0-0.1,0c-0.1,0-0.1,0-0.1,0c0,0-0.1-0.1-0.1-0.1c0-0.1,0-0.2,0-0.3c0-0.1,0-0.2,0-0.3
		c0-0.1,0-0.1,0.1-0.1c0,0,0.1,0,0.1,0c0.1,0,0.1,0,0.1,0c0,0,0.1,0.1,0.1,0.1c0,0.1,0,0.2,0,0.3C29.4,15.4,29.4,15.5,29.4,15.6z"/>
	<path class="st1" d="M29.2,16.9c-0.3,0-0.5,0.1-0.6,0.2c-0.1,0.2-0.2,0.4-0.2,0.7c0,0.3,0.1,0.5,0.2,0.7c0.1,0.2,0.3,0.2,0.6,0.2
		c0.3,0,0.5-0.1,0.6-0.2c0.1-0.2,0.2-0.4,0.2-0.7c0-0.3-0.1-0.5-0.2-0.7C29.7,17,29.5,16.9,29.2,16.9z M29.4,18.1
		c0,0.1,0,0.1-0.1,0.1c0,0-0.1,0-0.1,0c-0.1,0-0.1,0-0.1,0c0,0-0.1-0.1-0.1-0.1c0-0.1,0-0.2,0-0.3c0-0.1,0-0.2,0-0.3
		c0-0.1,0-0.1,0.1-0.1c0,0,0.1,0,0.1,0c0.1,0,0.1,0,0.1,0c0,0,0.1,0.1,0.1,0.1c0,0.1,0,0.2,0,0.3C29.4,17.9,29.4,18,29.4,18.1z"/>
	<polygon class="st1" points="29.5,21.2 29.5,19.5 28.6,19.5 28.6,19.9 28.9,19.9 28.9,21.2 	"/>
	<path class="st1" d="M29.2,22c-0.3,0-0.5,0.1-0.6,0.2c-0.1,0.2-0.2,0.4-0.2,0.7c0,0.3,0.1,0.5,0.2,0.7c0.1,0.2,0.3,0.2,0.6,0.2
		c0.3,0,0.5-0.1,0.6-0.2c0.1-0.2,0.2-0.4,0.2-0.7c0-0.3-0.1-0.5-0.2-0.7C29.7,22,29.5,22,29.2,22z M29.4,23.2c0,0.1,0,0.1-0.1,0.1
		c0,0-0.1,0-0.1,0c-0.1,0-0.1,0-0.1,0c0,0-0.1-0.1-0.1-0.1c0-0.1,0-0.2,0-0.3c0-0.1,0-0.2,0-0.3c0-0.1,0-0.1,0.1-0.1
		c0,0,0.1,0,0.1,0c0.1,0,0.1,0,0.1,0c0,0,0.1,0.1,0.1,0.1c0,0.1,0,0.2,0,0.3C29.4,23,29.4,23.1,29.4,23.2z"/>
	<polygon class="st1" points="29.5,26.3 29.5,24.5 28.6,24.5 28.6,25 28.9,25 28.9,26.3 	"/>
	<path class="st1" d="M29.2,27c-0.3,0-0.5,0.1-0.6,0.2c-0.1,0.2-0.2,0.4-0.2,0.7c0,0.3,0.1,0.5,0.2,0.7c0.1,0.2,0.3,0.2,0.6,0.2
		c0.3,0,0.5-0.1,0.6-0.2c0.1-0.2,0.2-0.4,0.2-0.7c0-0.3-0.1-0.5-0.2-0.7C29.7,27.1,29.5,27,29.2,27z M29.4,28.2c0,0.1,0,0.1-0.1,0.1
		c0,0-0.1,0-0.1,0c-0.1,0-0.1,0-0.1,0c0,0-0.1-0.1-0.1-0.1c0-0.1,0-0.2,0-0.3c0-0.1,0-0.2,0-0.3c0-0.1,0-0.1,0.1-0.1
		c0,0,0.1,0,0.1,0c0.1,0,0.1,0,0.1,0c0,0,0.1,0.1,0.1,0.1c0,0.1,0,0.2,0,0.3C29.4,28,29.4,28.1,29.4,28.2z"/>
	<polygon class="st1" points="29.5,31.3 29.5,29.6 28.6,29.6 28.6,30 28.9,30 28.9,31.3 	"/>
	<path class="st1" d="M29.2,32.1c-0.3,0-0.5,0.1-0.6,0.2c-0.1,0.2-0.2,0.4-0.2,0.7c0,0.3,0.1,0.5,0.2,0.7c0.1,0.2,0.3,0.2,0.6,0.2
		c0.3,0,0.5-0.1,0.6-0.2C30,33.5,30,33.3,30,33c0-0.3-0.1-0.5-0.2-0.7C29.7,32.1,29.5,32.1,29.2,32.1z M29.4,33.3
		c0,0.1,0,0.1-0.1,0.1c0,0-0.1,0-0.1,0c-0.1,0-0.1,0-0.1,0c0,0-0.1-0.1-0.1-0.1c0-0.1,0-0.2,0-0.3c0-0.1,0-0.2,0-0.3
		c0-0.1,0-0.1,0.1-0.1c0,0,0.1,0,0.1,0c0.1,0,0.1,0,0.1,0c0,0,0.1,0.1,0.1,0.1c0,0.1,0,0.2,0,0.3C29.4,33.1,29.4,33.2,29.4,33.3z"/>
	<polygon class="st1" points="29.5,36.4 29.5,34.6 28.6,34.6 28.6,35.1 28.9,35.1 28.9,36.4 	"/>
	<path class="st1" d="M29.2,37.1c-0.3,0-0.5,0.1-0.6,0.2c-0.1,0.2-0.2,0.4-0.2,0.7c0,0.3,0.1,0.5,0.2,0.7c0.1,0.2,0.3,0.2,0.6,0.2
		c0.3,0,0.5-0.1,0.6-0.2C30,38.5,30,38.3,30,38c0-0.3-0.1-0.5-0.2-0.7C29.7,37.2,29.5,37.1,29.2,37.1z M29.4,38.3
		c0,0.1,0,0.1-0.1,0.1c0,0-0.1,0-0.1,0c-0.1,0-0.1,0-0.1,0c0,0-0.1-0.1-0.1-0.1c0-0.1,0-0.2,0-0.3c0-0.1,0-0.2,0-0.3
		c0-0.1,0-0.1,0.1-0.1c0,0,0.1,0,0.1,0c0.1,0,0.1,0,0.1,0c0,0,0.1,0.1,0.1,0.1c0,0.1,0,0.2,0,0.3C29.4,38.1,29.4,38.2,29.4,38.3z"/>
	<polygon class="st1" points="29.5,41.4 29.5,39.7 28.6,39.7 28.6,40.1 28.9,40.1 28.9,41.4 	"/>
	<path class="st1" d="M29.2,42.2c-0.3,0-0.5,0.1-0.6,0.2c-0.1,0.2-0.2,0.4-0.2,0.7c0,0.3,0.1,0.5,0.2,0.7c0.1,0.2,0.3,0.2,0.6,0.2
		c0.3,0,0.5-0.1,0.6-0.2c0.1-0.2,0.2-0.4,0.2-0.7c0-0.3-0.1-0.5-0.2-0.7C29.7,42.2,29.5,42.2,29.2,42.2z M29.4,43.4
		c0,0.1,0,0.1-0.1,0.1c0,0-0.1,0-0.1,0c-0.1,0-0.1,0-0.1,0c0,0-0.1-0.1-0.1-0.1c0-0.1,0-0.2,0-0.3c0-0.1,0-0.2,0-0.3
		c0-0.1,0-0.1,0.1-0.1c0,0,0.1,0,0.1,0c0.1,0,0.1,0,0.1,0c0,0,0.1,0.1,0.1,0.1c0,0.1,0,0.2,0,0.3C29.4,43.2,29.4,43.3,29.4,43.4z"/>
	<polygon class="st1" points="29.5,46.5 29.5,44.7 28.6,44.7 28.6,45.2 28.9,45.2 28.9,46.5 	"/>
	<path class="st1" d="M28.6,56.4c0.1,0.2,0.3,0.2,0.6,0.2c0.3,0,0.5-0.1,0.6-0.2c0-0.1,0.1-0.1,0.1-0.2C29.5,56.3,29,56.3,28.6,56.4
		C28.6,56.3,28.6,56.4,28.6,56.4z"/>
	<path class="st1" d="M29.8,55c-0.1-0.2-0.3-0.2-0.6-0.2c-0.3,0-0.5,0.1-0.6,0.2c-0.1,0.2-0.2,0.4-0.2,0.7c0,0.3,0.1,0.5,0.2,0.6
		c0.4,0,0.9-0.1,1.3-0.2c0.1-0.1,0.1-0.3,0.1-0.5C30,55.4,30,55.2,29.8,55z M29.4,56c0,0.1,0,0.1-0.1,0.1c0,0-0.1,0-0.1,0
		c-0.1,0-0.1,0-0.1,0c0,0-0.1-0.1-0.1-0.1c0-0.1,0-0.2,0-0.3c0-0.1,0-0.2,0-0.3c0-0.1,0-0.1,0.1-0.1c0,0,0.1,0,0.1,0
		c0.1,0,0.1,0,0.1,0c0,0,0.1,0.1,0.1,0.1c0,0.1,0,0.2,0,0.3C29.4,55.8,29.4,55.9,29.4,56z"/>
	<polygon class="st1" points="29.5,59.1 29.5,57.3 28.6,57.3 28.6,57.8 28.9,57.8 28.9,59.1 	"/>
	<path class="st1" d="M34.5,10.9c0.1,0.2,0.3,0.2,0.6,0.2c0.3,0,0.5-0.1,0.6-0.2c0.1-0.2,0.2-0.4,0.2-0.7c0-0.2,0-0.4-0.1-0.6
		c-0.2,0-0.4,0.1-0.6,0.1c0,0,0,0,0,0c0,0,0.1,0.1,0.1,0.1c0,0.1,0,0.2,0,0.3c0,0.1,0,0.2,0,0.3c0,0.1,0,0.1-0.1,0.1
		c0,0-0.1,0-0.1,0c-0.1,0-0.1,0-0.1,0c0,0-0.1-0.1-0.1-0.1c0-0.1,0-0.2,0-0.3c0-0.1,0-0.2,0-0.3c0,0,0-0.1,0-0.1
		c-0.2,0-0.4,0.1-0.6,0.1c0,0.1,0,0.2,0,0.2C34.2,10.5,34.3,10.8,34.5,10.9z"/>
	<polygon class="st1" points="34.7,13.7 35.3,13.7 35.3,11.9 34.4,11.9 34.4,12.4 34.7,12.4 	"/>
	<path class="st1" d="M35.1,14.4c-0.3,0-0.5,0.1-0.6,0.2c-0.1,0.2-0.2,0.4-0.2,0.7c0,0.3,0.1,0.5,0.2,0.7c0.1,0.2,0.3,0.2,0.6,0.2
		c0.3,0,0.5-0.1,0.6-0.2c0.1-0.2,0.2-0.4,0.2-0.7c0-0.3-0.1-0.5-0.2-0.7C35.5,14.5,35.3,14.4,35.1,14.4z M35.2,15.6
		c0,0.1,0,0.1-0.1,0.1c0,0-0.1,0-0.1,0c-0.1,0-0.1,0-0.1,0c0,0-0.1-0.1-0.1-0.1c0-0.1,0-0.2,0-0.3c0-0.1,0-0.2,0-0.3
		c0-0.1,0-0.1,0.1-0.1c0,0,0.1,0,0.1,0c0.1,0,0.1,0,0.1,0c0,0,0.1,0.1,0.1,0.1c0,0.1,0,0.2,0,0.3C35.3,15.4,35.3,15.5,35.2,15.6z"/>
	<polygon class="st1" points="35.3,18.7 35.3,16.9 34.4,16.9 34.4,17.4 34.7,17.4 34.7,18.7 	"/>
	<path class="st1" d="M35.1,19.4c-0.3,0-0.5,0.1-0.6,0.2c-0.1,0.2-0.2,0.4-0.2,0.7c0,0.3,0.1,0.5,0.2,0.7c0.1,0.2,0.3,0.2,0.6,0.2
		c0.3,0,0.5-0.1,0.6-0.2c0.1-0.2,0.2-0.4,0.2-0.7c0-0.3-0.1-0.5-0.2-0.7C35.5,19.5,35.3,19.4,35.1,19.4z M35.2,20.6
		c0,0.1,0,0.1-0.1,0.1c0,0-0.1,0-0.1,0c-0.1,0-0.1,0-0.1,0c0,0-0.1-0.1-0.1-0.1c0-0.1,0-0.2,0-0.3c0-0.1,0-0.2,0-0.3
		c0-0.1,0-0.1,0.1-0.1c0,0,0.1,0,0.1,0c0.1,0,0.1,0,0.1,0c0,0,0.1,0.1,0.1,0.1c0,0.1,0,0.2,0,0.3C35.3,20.5,35.3,20.6,35.2,20.6z"/>
	<path class="st1" d="M35.1,22c-0.3,0-0.5,0.1-0.6,0.2c-0.1,0.2-0.2,0.4-0.2,0.7c0,0.3,0.1,0.5,0.2,0.7c0.1,0.2,0.3,0.2,0.6,0.2
		c0.3,0,0.5-0.1,0.6-0.2c0.1-0.2,0.2-0.4,0.2-0.7c0-0.3-0.1-0.5-0.2-0.7C35.5,22,35.3,22,35.1,22z M35.2,23.2c0,0.1,0,0.1-0.1,0.1
		c0,0-0.1,0-0.1,0c-0.1,0-0.1,0-0.1,0c0,0-0.1-0.1-0.1-0.1c0-0.1,0-0.2,0-0.3c0-0.1,0-0.2,0-0.3c0-0.1,0-0.1,0.1-0.1
		c0,0,0.1,0,0.1,0c0.1,0,0.1,0,0.1,0c0,0,0.1,0.1,0.1,0.1c0,0.1,0,0.2,0,0.3C35.3,23,35.3,23.1,35.2,23.2z"/>
	<polygon class="st1" points="35.3,26.3 35.3,24.5 34.4,24.5 34.4,25 34.7,25 34.7,26.3 	"/>
	<path class="st1" d="M35.1,27c-0.3,0-0.5,0.1-0.6,0.2c-0.1,0.2-0.2,0.4-0.2,0.7c0,0.3,0.1,0.5,0.2,0.7c0.1,0.2,0.3,0.2,0.6,0.2
		c0.3,0,0.5-0.1,0.6-0.2c0.1-0.2,0.2-0.4,0.2-0.7c0-0.3-0.1-0.5-0.2-0.7C35.5,27.1,35.3,27,35.1,27z M35.2,28.2c0,0.1,0,0.1-0.1,0.1
		c0,0-0.1,0-0.1,0c-0.1,0-0.1,0-0.1,0c0,0-0.1-0.1-0.1-0.1c0-0.1,0-0.2,0-0.3c0-0.1,0-0.2,0-0.3c0-0.1,0-0.1,0.1-0.1
		c0,0,0.1,0,0.1,0c0.1,0,0.1,0,0.1,0c0,0,0.1,0.1,0.1,0.1c0,0.1,0,0.2,0,0.3C35.3,28,35.3,28.1,35.2,28.2z"/>
	<polygon class="st1" points="35.3,31.3 35.3,29.6 34.4,29.6 34.4,30 34.7,30 34.7,31.3 	"/>
	<path class="st1" d="M35.1,32.1c-0.3,0-0.5,0.1-0.6,0.2c-0.1,0.2-0.2,0.4-0.2,0.7c0,0.3,0.1,0.5,0.2,0.7c0.1,0.2,0.3,0.2,0.6,0.2
		c0.3,0,0.5-0.1,0.6-0.2c0.1-0.2,0.2-0.4,0.2-0.7c0-0.3-0.1-0.5-0.2-0.7C35.5,32.1,35.3,32.1,35.1,32.1z M35.2,33.3
		c0,0.1,0,0.1-0.1,0.1c0,0-0.1,0-0.1,0c-0.1,0-0.1,0-0.1,0c0,0-0.1-0.1-0.1-0.1c0-0.1,0-0.2,0-0.3c0-0.1,0-0.2,0-0.3
		c0-0.1,0-0.1,0.1-0.1c0,0,0.1,0,0.1,0c0.1,0,0.1,0,0.1,0c0,0,0.1,0.1,0.1,0.1c0,0.1,0,0.2,0,0.3C35.3,33.1,35.3,33.2,35.2,33.3z"/>
	<path class="st1" d="M35.1,34.6c-0.3,0-0.5,0.1-0.6,0.2c-0.1,0.2-0.2,0.4-0.2,0.7c0,0.3,0.1,0.5,0.2,0.7c0.1,0.2,0.3,0.2,0.6,0.2
		c0.3,0,0.5-0.1,0.6-0.2c0.1-0.2,0.2-0.4,0.2-0.7c0-0.3-0.1-0.5-0.2-0.7C35.5,34.7,35.3,34.6,35.1,34.6z M35.2,35.8
		c0,0.1,0,0.1-0.1,0.1c0,0-0.1,0-0.1,0c-0.1,0-0.1,0-0.1,0c0,0-0.1-0.1-0.1-0.1c0-0.1,0-0.2,0-0.3c0-0.1,0-0.2,0-0.3
		c0-0.1,0-0.1,0.1-0.1c0,0,0.1,0,0.1,0c0.1,0,0.1,0,0.1,0c0,0,0.1,0.1,0.1,0.1c0,0.1,0,0.2,0,0.3C35.3,35.6,35.3,35.7,35.2,35.8z"/>
	<polygon class="st1" points="35.3,38.9 35.3,37.1 34.4,37.1 34.4,37.6 34.7,37.6 34.7,38.9 	"/>
	<path class="st1" d="M35.1,39.6c-0.3,0-0.5,0.1-0.6,0.2c-0.1,0.2-0.2,0.4-0.2,0.7c0,0.3,0.1,0.5,0.2,0.7c0.1,0.2,0.3,0.2,0.6,0.2
		c0.3,0,0.5-0.1,0.6-0.2c0.1-0.2,0.2-0.4,0.2-0.7c0-0.3-0.1-0.5-0.2-0.7C35.5,39.7,35.3,39.6,35.1,39.6z M35.2,40.8
		c0,0.1,0,0.1-0.1,0.1c0,0-0.1,0-0.1,0c-0.1,0-0.1,0-0.1,0c0,0-0.1-0.1-0.1-0.1c0-0.1,0-0.2,0-0.3c0-0.1,0-0.2,0-0.3
		c0-0.1,0-0.1,0.1-0.1c0,0,0.1,0,0.1,0c0.1,0,0.1,0,0.1,0c0,0,0.1,0.1,0.1,0.1c0,0.1,0,0.2,0,0.3C35.3,40.7,35.3,40.8,35.2,40.8z"/>
	<polygon class="st1" points="35.3,44 35.3,42.2 34.4,42.2 34.4,42.6 34.7,42.6 34.7,44 	"/>
	<path class="st1" d="M35.1,44.7c-0.3,0-0.5,0.1-0.6,0.2c-0.1,0.2-0.2,0.4-0.2,0.7c0,0.3,0.1,0.5,0.2,0.7c0.1,0.2,0.3,0.2,0.6,0.2
		c0.3,0,0.5-0.1,0.6-0.2c0.1-0.2,0.2-0.4,0.2-0.7c0-0.3-0.1-0.5-0.2-0.7C35.5,44.8,35.3,44.7,35.1,44.7z M35.2,45.9
		c0,0.1,0,0.1-0.1,0.1c0,0-0.1,0-0.1,0c-0.1,0-0.1,0-0.1,0c0,0-0.1-0.1-0.1-0.1c0-0.1,0-0.2,0-0.3c0-0.1,0-0.2,0-0.3
		c0-0.1,0-0.1,0.1-0.1c0,0,0.1,0,0.1,0c0.1,0,0.1,0,0.1,0c0,0,0.1,0.1,0.1,0.1c0,0.1,0,0.2,0,0.3C35.3,45.7,35.3,45.8,35.2,45.9z"/>
	<polygon class="st1" points="35.3,49 35.3,47.2 34.4,47.2 34.4,47.7 34.7,47.7 34.7,49 	"/>
	<path class="st1" d="M35.1,49.7c-0.3,0-0.5,0.1-0.6,0.2c-0.1,0.2-0.2,0.4-0.2,0.7c0,0.3,0.1,0.5,0.2,0.7c0.1,0.2,0.3,0.2,0.6,0.2
		c0.3,0,0.5-0.1,0.6-0.2c0.1-0.2,0.2-0.4,0.2-0.7c0-0.3-0.1-0.5-0.2-0.7C35.5,49.8,35.3,49.7,35.1,49.7z M35.2,50.9
		c0,0.1,0,0.1-0.1,0.1c0,0-0.1,0-0.1,0c-0.1,0-0.1,0-0.1,0c0,0-0.1-0.1-0.1-0.1c0-0.1,0-0.2,0-0.3c0-0.1,0-0.2,0-0.3
		c0-0.1,0-0.1,0.1-0.1c0,0,0.1,0,0.1,0c0.1,0,0.1,0,0.1,0c0,0,0.1,0.1,0.1,0.1c0,0.1,0,0.2,0,0.3C35.3,50.8,35.3,50.9,35.2,50.9z"/>
	<path class="st1" d="M35.1,52.3c-0.3,0-0.5,0.1-0.6,0.2c-0.1,0.2-0.2,0.4-0.2,0.7c0,0.3,0.1,0.5,0.2,0.7c0.1,0.2,0.3,0.2,0.6,0.2
		c0.3,0,0.5-0.1,0.6-0.2c0.1-0.2,0.2-0.4,0.2-0.7c0-0.3-0.1-0.5-0.2-0.7C35.5,52.3,35.3,52.3,35.1,52.3z M35.2,53.5
		c0,0.1,0,0.1-0.1,0.1c0,0-0.1,0-0.1,0c-0.1,0-0.1,0-0.1,0c0,0-0.1-0.1-0.1-0.1c0-0.1,0-0.2,0-0.3c0-0.1,0-0.2,0-0.3
		c0-0.1,0-0.1,0.1-0.1c0,0,0.1,0,0.1,0c0.1,0,0.1,0,0.1,0c0,0,0.1,0.1,0.1,0.1c0,0.1,0,0.2,0,0.3C35.3,53.3,35.3,53.4,35.2,53.5z"/>
	<path class="st1" d="M34.4,55.3h0.3v1.3h0.6v-1.8h-0.3c-0.2,0.1-0.4,0.2-0.6,0.2V55.3z"/>
	<path class="st1" d="M34.4,55c0.2-0.1,0.4-0.2,0.6-0.2h-0.6V55z"/>
	<polygon class="st1" points="40.6,11.1 41.2,11.1 41.2,9.4 40.3,9.4 40.3,9.8 40.6,9.8 	"/>
	<path class="st1" d="M40.9,11.9c-0.3,0-0.5,0.1-0.6,0.2c-0.1,0.2-0.2,0.4-0.2,0.7c0,0.3,0.1,0.5,0.2,0.7c0.1,0.2,0.3,0.2,0.6,0.2
		c0.3,0,0.5-0.1,0.6-0.2c0.1-0.2,0.2-0.4,0.2-0.7c0-0.3-0.1-0.5-0.2-0.7C41.4,12,41.2,11.9,40.9,11.9z M41.1,13.1
		c0,0.1,0,0.1-0.1,0.1c0,0-0.1,0-0.1,0c-0.1,0-0.1,0-0.1,0c0,0-0.1-0.1-0.1-0.1c0-0.1,0-0.2,0-0.3c0-0.1,0-0.2,0-0.3
		c0-0.1,0-0.1,0.1-0.1c0,0,0.1,0,0.1,0c0.1,0,0.1,0,0.1,0c0,0,0.1,0.1,0.1,0.1c0,0.1,0,0.2,0,0.3C41.1,12.9,41.1,13,41.1,13.1z"/>
	<polygon class="st1" points="41.2,16.2 41.2,14.4 40.3,14.4 40.3,14.9 40.6,14.9 40.6,16.2 	"/>
	<path class="st1" d="M40.9,16.9c-0.3,0-0.5,0.1-0.6,0.2c-0.1,0.2-0.2,0.4-0.2,0.7c0,0.3,0.1,0.5,0.2,0.7c0.1,0.2,0.3,0.2,0.6,0.2
		c0.3,0,0.5-0.1,0.6-0.2c0.1-0.2,0.2-0.4,0.2-0.7c0-0.3-0.1-0.5-0.2-0.7C41.4,17,41.2,16.9,40.9,16.9z M41.1,18.1
		c0,0.1,0,0.1-0.1,0.1c0,0-0.1,0-0.1,0c-0.1,0-0.1,0-0.1,0c0,0-0.1-0.1-0.1-0.1c0-0.1,0-0.2,0-0.3c0-0.1,0-0.2,0-0.3
		c0-0.1,0-0.1,0.1-0.1c0,0,0.1,0,0.1,0c0.1,0,0.1,0,0.1,0c0,0,0.1,0.1,0.1,0.1c0,0.1,0,0.2,0,0.3C41.1,17.9,41.1,18,41.1,18.1z"/>
	<polygon class="st1" points="41.2,21.2 41.2,19.5 40.3,19.5 40.3,19.9 40.6,19.9 40.6,21.2 	"/>
	<path class="st1" d="M40.9,22c-0.3,0-0.5,0.1-0.6,0.2c-0.1,0.2-0.2,0.4-0.2,0.7c0,0.3,0.1,0.5,0.2,0.7c0.1,0.2,0.3,0.2,0.6,0.2
		c0.3,0,0.5-0.1,0.6-0.2c0.1-0.2,0.2-0.4,0.2-0.7c0-0.3-0.1-0.5-0.2-0.7C41.4,22,41.2,22,40.9,22z M41.1,23.2c0,0.1,0,0.1-0.1,0.1
		c0,0-0.1,0-0.1,0c-0.1,0-0.1,0-0.1,0c0,0-0.1-0.1-0.1-0.1c0-0.1,0-0.2,0-0.3c0-0.1,0-0.2,0-0.3c0-0.1,0-0.1,0.1-0.1
		c0,0,0.1,0,0.1,0c0.1,0,0.1,0,0.1,0c0,0,0.1,0.1,0.1,0.1c0,0.1,0,0.2,0,0.3C41.1,23,41.1,23.1,41.1,23.2z"/>
	<polygon class="st1" points="41.2,26.3 41.2,24.5 40.3,24.5 40.3,25 40.6,25 40.6,26.3 	"/>
	<polygon class="st1" points="40.3,27.5 40.6,27.5 40.6,28.8 41.2,28.8 41.2,27 40.3,27 	"/>
	<path class="st1" d="M40.9,29.5c-0.3,0-0.5,0.1-0.6,0.2c-0.1,0.2-0.2,0.4-0.2,0.7c0,0.3,0.1,0.5,0.2,0.7c0.1,0.2,0.3,0.2,0.6,0.2
		c0.3,0,0.5-0.1,0.6-0.2c0.1-0.2,0.2-0.4,0.2-0.7c0-0.3-0.1-0.5-0.2-0.7C41.4,29.6,41.2,29.5,40.9,29.5z M41.1,30.7
		c0,0.1,0,0.1-0.1,0.1c0,0-0.1,0-0.1,0c-0.1,0-0.1,0-0.1,0c0,0-0.1-0.1-0.1-0.1c0-0.1,0-0.2,0-0.3c0-0.1,0-0.2,0-0.3
		c0-0.1,0-0.1,0.1-0.1c0,0,0.1,0,0.1,0c0.1,0,0.1,0,0.1,0c0,0,0.1,0.1,0.1,0.1c0,0.1,0,0.2,0,0.3C41.1,30.6,41.1,30.7,41.1,30.7z"/>
	<polygon class="st1" points="41.2,33.9 41.2,32.1 40.3,32.1 40.3,32.5 40.6,32.5 40.6,33.9 	"/>
	<path class="st1" d="M40.9,34.6c-0.3,0-0.5,0.1-0.6,0.2c-0.1,0.2-0.2,0.4-0.2,0.7c0,0.3,0.1,0.5,0.2,0.7c0.1,0.2,0.3,0.2,0.6,0.2
		c0.3,0,0.5-0.1,0.6-0.2c0.1-0.2,0.2-0.4,0.2-0.7c0-0.3-0.1-0.5-0.2-0.7C41.4,34.7,41.2,34.6,40.9,34.6z M41.1,35.8
		c0,0.1,0,0.1-0.1,0.1c0,0-0.1,0-0.1,0c-0.1,0-0.1,0-0.1,0c0,0-0.1-0.1-0.1-0.1c0-0.1,0-0.2,0-0.3c0-0.1,0-0.2,0-0.3
		c0-0.1,0-0.1,0.1-0.1c0,0,0.1,0,0.1,0c0.1,0,0.1,0,0.1,0c0,0,0.1,0.1,0.1,0.1c0,0.1,0,0.2,0,0.3C41.1,35.6,41.1,35.7,41.1,35.8z"/>
	<polygon class="st1" points="41.2,38.9 41.2,37.1 40.3,37.1 40.3,37.6 40.6,37.6 40.6,38.9 	"/>
	<polygon class="st1" points="40.3,40.1 40.6,40.1 40.6,41.4 41.2,41.4 41.2,39.7 40.3,39.7 	"/>
	<path class="st1" d="M40.9,42.2c-0.3,0-0.5,0.1-0.6,0.2c-0.1,0.2-0.2,0.4-0.2,0.7c0,0.3,0.1,0.5,0.2,0.7c0.1,0.2,0.3,0.2,0.6,0.2
		c0.3,0,0.5-0.1,0.6-0.2c0.1-0.2,0.2-0.4,0.2-0.7c0-0.3-0.1-0.5-0.2-0.7C41.4,42.2,41.2,42.2,40.9,42.2z M41.1,43.4
		c0,0.1,0,0.1-0.1,0.1c0,0-0.1,0-0.1,0c-0.1,0-0.1,0-0.1,0c0,0-0.1-0.1-0.1-0.1c0-0.1,0-0.2,0-0.3c0-0.1,0-0.2,0-0.3
		c0-0.1,0-0.1,0.1-0.1c0,0,0.1,0,0.1,0c0.1,0,0.1,0,0.1,0c0,0,0.1,0.1,0.1,0.1c0,0.1,0,0.2,0,0.3C41.1,43.2,41.1,43.3,41.1,43.4z"/>
	<polygon class="st1" points="41.2,46.5 41.2,44.7 40.3,44.7 40.3,45.2 40.6,45.2 40.6,46.5 	"/>
	<path class="st1" d="M40.9,47.2c-0.3,0-0.5,0.1-0.6,0.2c-0.1,0.2-0.2,0.4-0.2,0.7c0,0.3,0.1,0.5,0.2,0.7c0.1,0.2,0.3,0.2,0.6,0.2
		c0.3,0,0.5-0.1,0.6-0.2c0.1-0.2,0.2-0.4,0.2-0.7c0-0.3-0.1-0.5-0.2-0.7C41.4,47.3,41.2,47.2,40.9,47.2z M41.1,48.4
		c0,0.1,0,0.1-0.1,0.1c0,0-0.1,0-0.1,0c-0.1,0-0.1,0-0.1,0c0,0-0.1-0.1-0.1-0.1c0-0.1,0-0.2,0-0.3c0-0.1,0-0.2,0-0.3
		c0-0.1,0-0.1,0.1-0.1c0,0,0.1,0,0.1,0c0.1,0,0.1,0,0.1,0c0,0,0.1,0.1,0.1,0.1c0,0.1,0,0.2,0,0.3C41.1,48.2,41.1,48.3,41.1,48.4z"/>
	<polygon class="st1" points="40.3,50.2 40.6,50.2 40.6,51.5 41.2,51.5 41.2,49.8 40.3,49.8 	"/>
	<path class="st1" d="M47,9.4L47,9.4C47,9.4,47,9.4,47,9.4L47,9.4z"/>
	<path class="st1" d="M46.1,9.8h0.3v1.3H47V9.4c0,0,0,0-0.1,0h-0.8V9.8z"/>
	<polygon class="st1" points="46.4,13.7 47,13.7 47,11.9 46.1,11.9 46.1,12.4 46.4,12.4 	"/>
	<path class="st1" d="M46.7,14.4c-0.3,0-0.5,0.1-0.6,0.2c-0.1,0.2-0.2,0.4-0.2,0.7c0,0.3,0.1,0.5,0.2,0.7c0.1,0.2,0.3,0.2,0.6,0.2
		c0.3,0,0.5-0.1,0.6-0.2c0.1-0.2,0.2-0.4,0.2-0.7c0-0.3-0.1-0.5-0.2-0.7C47.2,14.5,47,14.4,46.7,14.4z M46.9,15.6
		c0,0.1,0,0.1-0.1,0.1c0,0-0.1,0-0.1,0c-0.1,0-0.1,0-0.1,0c0,0-0.1-0.1-0.1-0.1c0-0.1,0-0.2,0-0.3c0-0.1,0-0.2,0-0.3
		c0-0.1,0-0.1,0.1-0.1c0,0,0.1,0,0.1,0c0.1,0,0.1,0,0.1,0c0,0,0.1,0.1,0.1,0.1c0,0.1,0,0.2,0,0.3C46.9,15.4,46.9,15.5,46.9,15.6z"/>
	<path class="st1" d="M46.7,16.9c-0.3,0-0.5,0.1-0.6,0.2c-0.1,0.2-0.2,0.4-0.2,0.7c0,0.3,0.1,0.5,0.2,0.7c0.1,0.2,0.3,0.2,0.6,0.2
		c0.3,0,0.5-0.1,0.6-0.2c0.1-0.2,0.2-0.4,0.2-0.7c0-0.3-0.1-0.5-0.2-0.7C47.2,17,47,16.9,46.7,16.9z M46.9,18.1c0,0.1,0,0.1-0.1,0.1
		c0,0-0.1,0-0.1,0c-0.1,0-0.1,0-0.1,0c0,0-0.1-0.1-0.1-0.1c0-0.1,0-0.2,0-0.3c0-0.1,0-0.2,0-0.3c0-0.1,0-0.1,0.1-0.1
		c0,0,0.1,0,0.1,0c0.1,0,0.1,0,0.1,0c0,0,0.1,0.1,0.1,0.1c0,0.1,0,0.2,0,0.3C46.9,17.9,46.9,18,46.9,18.1z"/>
	<polygon class="st1" points="47,21.2 47,19.5 46.1,19.5 46.1,19.9 46.4,19.9 46.4,21.2 	"/>
	<path class="st1" d="M46.7,22c-0.3,0-0.5,0.1-0.6,0.2c-0.1,0.2-0.2,0.4-0.2,0.7c0,0.3,0.1,0.5,0.2,0.7c0.1,0.2,0.3,0.2,0.6,0.2
		c0.3,0,0.5-0.1,0.6-0.2c0.1-0.2,0.2-0.4,0.2-0.7c0-0.3-0.1-0.5-0.2-0.7C47.2,22,47,22,46.7,22z M46.9,23.2c0,0.1,0,0.1-0.1,0.1
		c0,0-0.1,0-0.1,0c-0.1,0-0.1,0-0.1,0c0,0-0.1-0.1-0.1-0.1c0-0.1,0-0.2,0-0.3c0-0.1,0-0.2,0-0.3c0-0.1,0-0.1,0.1-0.1
		c0,0,0.1,0,0.1,0c0.1,0,0.1,0,0.1,0c0,0,0.1,0.1,0.1,0.1c0,0.1,0,0.2,0,0.3C46.9,23,46.9,23.1,46.9,23.2z"/>
	<polygon class="st1" points="47,26.3 47,24.5 46.1,24.5 46.1,25 46.4,25 46.4,26.3 	"/>
	<path class="st1" d="M46.7,27c-0.3,0-0.5,0.1-0.6,0.2c-0.1,0.2-0.2,0.4-0.2,0.7c0,0.3,0.1,0.5,0.2,0.7c0.1,0.2,0.3,0.2,0.6,0.2
		c0.3,0,0.5-0.1,0.6-0.2c0.1-0.2,0.2-0.4,0.2-0.7c0-0.3-0.1-0.5-0.2-0.7C47.2,27.1,47,27,46.7,27z M46.9,28.2c0,0.1,0,0.1-0.1,0.1
		c0,0-0.1,0-0.1,0c-0.1,0-0.1,0-0.1,0c0,0-0.1-0.1-0.1-0.1c0-0.1,0-0.2,0-0.3c0-0.1,0-0.2,0-0.3c0-0.1,0-0.1,0.1-0.1
		c0,0,0.1,0,0.1,0c0.1,0,0.1,0,0.1,0c0,0,0.1,0.1,0.1,0.1c0,0.1,0,0.2,0,0.3C46.9,28,46.9,28.1,46.9,28.2z"/>
	<polygon class="st1" points="47,31.3 47,29.6 46.1,29.6 46.1,30 46.4,30 46.4,31.3 	"/>
	<path class="st1" d="M46.7,32.1c-0.3,0-0.5,0.1-0.6,0.2c-0.1,0.2-0.2,0.4-0.2,0.7c0,0.3,0.1,0.5,0.2,0.7c0.1,0.2,0.3,0.2,0.6,0.2
		c0.3,0,0.5-0.1,0.6-0.2c0.1-0.2,0.2-0.4,0.2-0.7c0-0.3-0.1-0.5-0.2-0.7C47.2,32.1,47,32.1,46.7,32.1z M46.9,33.3
		c0,0.1,0,0.1-0.1,0.1c0,0-0.1,0-0.1,0c-0.1,0-0.1,0-0.1,0c0,0-0.1-0.1-0.1-0.1c0-0.1,0-0.2,0-0.3c0-0.1,0-0.2,0-0.3
		c0-0.1,0-0.1,0.1-0.1c0,0,0.1,0,0.1,0c0.1,0,0.1,0,0.1,0c0,0,0.1,0.1,0.1,0.1c0,0.1,0,0.2,0,0.3C46.9,33.1,46.9,33.2,46.9,33.3z"/>
	<polygon class="st1" points="47,36.4 47,34.6 46.1,34.6 46.1,35.1 46.4,35.1 46.4,36.4 	"/>
	<path class="st1" d="M46.7,37.1c-0.3,0-0.5,0.1-0.6,0.2c-0.1,0.2-0.2,0.4-0.2,0.7c0,0.3,0.1,0.5,0.2,0.7c0.1,0.2,0.3,0.2,0.6,0.2
		c0.3,0,0.5-0.1,0.6-0.2c0.1-0.2,0.2-0.4,0.2-0.7c0-0.3-0.1-0.5-0.2-0.7C47.2,37.2,47,37.1,46.7,37.1z M46.9,38.3
		c0,0.1,0,0.1-0.1,0.1c0,0-0.1,0-0.1,0c-0.1,0-0.1,0-0.1,0c0,0-0.1-0.1-0.1-0.1c0-0.1,0-0.2,0-0.3c0-0.1,0-0.2,0-0.3
		c0-0.1,0-0.1,0.1-0.1c0,0,0.1,0,0.1,0c0.1,0,0.1,0,0.1,0c0,0,0.1,0.1,0.1,0.1c0,0.1,0,0.2,0,0.3C46.9,38.1,46.9,38.2,46.9,38.3z"/>
	<polygon class="st1" points="47,41.4 47,39.7 46.1,39.7 46.1,40.1 46.4,40.1 46.4,41.4 	"/>
	<path class="st1" d="M46.7,42.2c-0.3,0-0.5,0.1-0.6,0.2c-0.1,0.2-0.2,0.4-0.2,0.7c0,0.3,0.1,0.5,0.2,0.7c0.1,0.2,0.3,0.2,0.6,0.2
		c0.3,0,0.5-0.1,0.6-0.2c0.1-0.2,0.2-0.4,0.2-0.7c0-0.3-0.1-0.5-0.2-0.7C47.2,42.2,47,42.2,46.7,42.2z M46.9,43.4
		c0,0.1,0,0.1-0.1,0.1c0,0-0.1,0-0.1,0c-0.1,0-0.1,0-0.1,0c0,0-0.1-0.1-0.1-0.1c0-0.1,0-0.2,0-0.3c0-0.1,0-0.2,0-0.3
		c0-0.1,0-0.1,0.1-0.1c0,0,0.1,0,0.1,0c0.1,0,0.1,0,0.1,0c0,0,0.1,0.1,0.1,0.1c0,0.1,0,0.2,0,0.3C46.9,43.2,46.9,43.3,46.9,43.4z"/>
	<polygon class="st1" points="47,46.5 47,44.7 46.1,44.7 46.1,45.2 46.4,45.2 46.4,46.5 	"/>
	<path class="st1" d="M46.7,47.2c-0.3,0-0.5,0.1-0.6,0.2c-0.1,0.2-0.2,0.4-0.2,0.7c0,0.3,0.1,0.5,0.2,0.7c0.1,0.2,0.3,0.2,0.6,0.2
		c0.3,0,0.5-0.1,0.6-0.2c0.1-0.2,0.2-0.4,0.2-0.7c0-0.3-0.1-0.5-0.2-0.7C47.2,47.3,47,47.2,46.7,47.2z M46.9,48.4
		c0,0.1,0,0.1-0.1,0.1c0,0-0.1,0-0.1,0c-0.1,0-0.1,0-0.1,0c0,0-0.1-0.1-0.1-0.1c0-0.1,0-0.2,0-0.3c0-0.1,0-0.2,0-0.3
		c0-0.1,0-0.1,0.1-0.1c0,0,0.1,0,0.1,0c0.1,0,0.1,0,0.1,0c0,0,0.1,0.1,0.1,0.1c0,0.1,0,0.2,0,0.3C46.9,48.2,46.9,48.3,46.9,48.4z"/>
	<polygon class="st1" points="46.1,50.2 46.4,50.2 46.4,51.5 47,51.5 47,49.8 46.1,49.8 	"/>
	<path class="st1" d="M46.9,53.6c0,0-0.1,0-0.1,0c-0.1,0-0.1,0-0.1,0c0,0-0.1-0.1-0.1-0.1c0,0,0-0.1,0-0.1c-0.2-0.1-0.4-0.2-0.6-0.3
		c0,0,0,0.1,0,0.1c0,0.3,0.1,0.5,0.2,0.7c0.1,0.2,0.3,0.2,0.6,0.2c0.3,0,0.5-0.1,0.6-0.2c0,0,0,0,0-0.1C47.2,53.7,47,53.6,46.9,53.6
		C46.9,53.6,46.9,53.6,46.9,53.6z"/>
	<path class="st1" d="M47.3,52.5c-0.1-0.2-0.3-0.2-0.6-0.2c-0.3,0-0.5,0.1-0.6,0.2c-0.1,0.1-0.2,0.3-0.2,0.5
		c0.2,0.1,0.4,0.2,0.6,0.3c0-0.1,0-0.1,0-0.2c0-0.1,0-0.2,0-0.3c0-0.1,0-0.1,0.1-0.1c0,0,0.1,0,0.1,0c0.1,0,0.1,0,0.1,0
		c0,0,0.1,0.1,0.1,0.1c0,0.1,0,0.2,0,0.3c0,0.1,0,0.2,0,0.3c0,0,0,0.1,0,0.1c0.2,0.1,0.3,0.2,0.5,0.2c0.1-0.2,0.2-0.4,0.2-0.6
		C47.5,52.9,47.5,52.7,47.3,52.5z"/>
	<path class="st1" d="M52.6,11.2c0.3,0,0.5-0.1,0.6-0.2c0,0,0.1-0.1,0.1-0.1c-0.2-0.1-0.4-0.1-0.5-0.2c0,0,0,0.1,0,0.1
		c0,0-0.1,0-0.1,0c-0.1,0-0.1,0-0.1,0c0,0-0.1-0.1-0.1-0.1c0,0,0,0,0,0c-0.2-0.1-0.4-0.1-0.6-0.2c0,0.3,0.1,0.5,0.2,0.6
		C52.1,11.1,52.3,11.2,52.6,11.2z"/>
	<polygon class="st1" points="52.3,13.7 52.8,13.7 52.8,11.9 51.9,11.9 51.9,12.4 52.3,12.4 	"/>
	<path class="st1" d="M52.6,14.4c-0.3,0-0.5,0.1-0.6,0.2c-0.1,0.2-0.2,0.4-0.2,0.7c0,0.3,0.1,0.5,0.2,0.7c0.1,0.2,0.3,0.2,0.6,0.2
		c0.3,0,0.5-0.1,0.6-0.2c0.1-0.2,0.2-0.4,0.2-0.7c0-0.3-0.1-0.5-0.2-0.7C53,14.5,52.8,14.4,52.6,14.4z M52.8,15.6
		c0,0.1,0,0.1-0.1,0.1c0,0-0.1,0-0.1,0c-0.1,0-0.1,0-0.1,0c0,0-0.1-0.1-0.1-0.1c0-0.1,0-0.2,0-0.3c0-0.1,0-0.2,0-0.3
		c0-0.1,0-0.1,0.1-0.1c0,0,0.1,0,0.1,0c0.1,0,0.1,0,0.1,0c0,0,0.1,0.1,0.1,0.1c0,0.1,0,0.2,0,0.3C52.8,15.4,52.8,15.5,52.8,15.6z"/>
	<polygon class="st1" points="52.8,18.7 52.8,16.9 51.9,16.9 51.9,17.4 52.3,17.4 52.3,18.7 	"/>
	<path class="st1" d="M52.6,19.4c-0.3,0-0.5,0.1-0.6,0.2c-0.1,0.2-0.2,0.4-0.2,0.7c0,0.3,0.1,0.5,0.2,0.7c0.1,0.2,0.3,0.2,0.6,0.2
		c0.3,0,0.5-0.1,0.6-0.2c0.1-0.2,0.2-0.4,0.2-0.7c0-0.3-0.1-0.5-0.2-0.7C53,19.5,52.8,19.4,52.6,19.4z M52.8,20.6
		c0,0.1,0,0.1-0.1,0.1c0,0-0.1,0-0.1,0c-0.1,0-0.1,0-0.1,0c0,0-0.1-0.1-0.1-0.1c0-0.1,0-0.2,0-0.3c0-0.1,0-0.2,0-0.3
		c0-0.1,0-0.1,0.1-0.1c0,0,0.1,0,0.1,0c0.1,0,0.1,0,0.1,0c0,0,0.1,0.1,0.1,0.1c0,0.1,0,0.2,0,0.3C52.8,20.5,52.8,20.6,52.8,20.6z"/>
	<path class="st1" d="M52.6,22c-0.3,0-0.5,0.1-0.6,0.2c-0.1,0.2-0.2,0.4-0.2,0.7c0,0.3,0.1,0.5,0.2,0.7c0.1,0.2,0.3,0.2,0.6,0.2
		c0.3,0,0.5-0.1,0.6-0.2c0.1-0.2,0.2-0.4,0.2-0.7c0-0.3-0.1-0.5-0.2-0.7C53,22,52.8,22,52.6,22z M52.8,23.2c0,0.1,0,0.1-0.1,0.1
		c0,0-0.1,0-0.1,0c-0.1,0-0.1,0-0.1,0c0,0-0.1-0.1-0.1-0.1c0-0.1,0-0.2,0-0.3c0-0.1,0-0.2,0-0.3c0-0.1,0-0.1,0.1-0.1
		c0,0,0.1,0,0.1,0c0.1,0,0.1,0,0.1,0c0,0,0.1,0.1,0.1,0.1c0,0.1,0,0.2,0,0.3C52.8,23,52.8,23.1,52.8,23.2z"/>
	<polygon class="st1" points="52.8,26.3 52.8,24.5 51.9,24.5 51.9,25 52.3,25 52.3,26.3 	"/>
	<path class="st1" d="M52.6,27c-0.3,0-0.5,0.1-0.6,0.2c-0.1,0.2-0.2,0.4-0.2,0.7c0,0.3,0.1,0.5,0.2,0.7c0.1,0.2,0.3,0.2,0.6,0.2
		c0.3,0,0.5-0.1,0.6-0.2c0.1-0.2,0.2-0.4,0.2-0.7c0-0.3-0.1-0.5-0.2-0.7C53,27.1,52.8,27,52.6,27z M52.8,28.2c0,0.1,0,0.1-0.1,0.1
		c0,0-0.1,0-0.1,0c-0.1,0-0.1,0-0.1,0c0,0-0.1-0.1-0.1-0.1c0-0.1,0-0.2,0-0.3c0-0.1,0-0.2,0-0.3c0-0.1,0-0.1,0.1-0.1
		c0,0,0.1,0,0.1,0c0.1,0,0.1,0,0.1,0c0,0,0.1,0.1,0.1,0.1c0,0.1,0,0.2,0,0.3C52.8,28,52.8,28.1,52.8,28.2z"/>
	<polygon class="st1" points="52.8,31.3 52.8,29.6 51.9,29.6 51.9,30 52.3,30 52.3,31.3 	"/>
	<path class="st1" d="M52.6,32.1c-0.3,0-0.5,0.1-0.6,0.2c-0.1,0.2-0.2,0.4-0.2,0.7c0,0.3,0.1,0.5,0.2,0.7c0.1,0.2,0.3,0.2,0.6,0.2
		c0.3,0,0.5-0.1,0.6-0.2c0.1-0.2,0.2-0.4,0.2-0.7c0-0.3-0.1-0.5-0.2-0.7C53,32.1,52.8,32.1,52.6,32.1z M52.8,33.3
		c0,0.1,0,0.1-0.1,0.1c0,0-0.1,0-0.1,0c-0.1,0-0.1,0-0.1,0c0,0-0.1-0.1-0.1-0.1c0-0.1,0-0.2,0-0.3c0-0.1,0-0.2,0-0.3
		c0-0.1,0-0.1,0.1-0.1c0,0,0.1,0,0.1,0c0.1,0,0.1,0,0.1,0c0,0,0.1,0.1,0.1,0.1c0,0.1,0,0.2,0,0.3C52.8,33.1,52.8,33.2,52.8,33.3z"/>
	<path class="st1" d="M52.6,34.6c-0.3,0-0.5,0.1-0.6,0.2c-0.1,0.2-0.2,0.4-0.2,0.7c0,0.3,0.1,0.5,0.2,0.7c0.1,0.2,0.3,0.2,0.6,0.2
		c0.3,0,0.5-0.1,0.6-0.2c0.1-0.2,0.2-0.4,0.2-0.7c0-0.3-0.1-0.5-0.2-0.7C53,34.7,52.8,34.6,52.6,34.6z M52.8,35.8
		c0,0.1,0,0.1-0.1,0.1c0,0-0.1,0-0.1,0c-0.1,0-0.1,0-0.1,0c0,0-0.1-0.1-0.1-0.1c0-0.1,0-0.2,0-0.3c0-0.1,0-0.2,0-0.3
		c0-0.1,0-0.1,0.1-0.1c0,0,0.1,0,0.1,0c0.1,0,0.1,0,0.1,0c0,0,0.1,0.1,0.1,0.1c0,0.1,0,0.2,0,0.3C52.8,35.6,52.8,35.7,52.8,35.8z"/>
	<polygon class="st1" points="52.8,38.9 52.8,37.1 51.9,37.1 51.9,37.6 52.3,37.6 52.3,38.9 	"/>
	<path class="st1" d="M52.6,39.6c-0.3,0-0.5,0.1-0.6,0.2c-0.1,0.2-0.2,0.4-0.2,0.7c0,0.3,0.1,0.5,0.2,0.7c0.1,0.2,0.3,0.2,0.6,0.2
		c0.3,0,0.5-0.1,0.6-0.2c0.1-0.2,0.2-0.4,0.2-0.7c0-0.3-0.1-0.5-0.2-0.7C53,39.7,52.8,39.6,52.6,39.6z M52.8,40.8
		c0,0.1,0,0.1-0.1,0.1c0,0-0.1,0-0.1,0c-0.1,0-0.1,0-0.1,0c0,0-0.1-0.1-0.1-0.1c0-0.1,0-0.2,0-0.3c0-0.1,0-0.2,0-0.3
		c0-0.1,0-0.1,0.1-0.1c0,0,0.1,0,0.1,0c0.1,0,0.1,0,0.1,0c0,0,0.1,0.1,0.1,0.1c0,0.1,0,0.2,0,0.3C52.8,40.7,52.8,40.8,52.8,40.8z"/>
	<polygon class="st1" points="52.8,44 52.8,42.2 51.9,42.2 51.9,42.6 52.3,42.6 52.3,44 	"/>
	<path class="st1" d="M52.6,44.7c-0.3,0-0.5,0.1-0.6,0.2c-0.1,0.2-0.2,0.4-0.2,0.7c0,0.3,0.1,0.5,0.2,0.7c0.1,0.2,0.3,0.2,0.6,0.2
		c0.3,0,0.5-0.1,0.6-0.2c0.1-0.2,0.2-0.4,0.2-0.7c0-0.3-0.1-0.5-0.2-0.7C53,44.8,52.8,44.7,52.6,44.7z M52.8,45.9
		c0,0.1,0,0.1-0.1,0.1c0,0-0.1,0-0.1,0c-0.1,0-0.1,0-0.1,0c0,0-0.1-0.1-0.1-0.1c0-0.1,0-0.2,0-0.3c0-0.1,0-0.2,0-0.3
		c0-0.1,0-0.1,0.1-0.1c0,0,0.1,0,0.1,0c0.1,0,0.1,0,0.1,0c0,0,0.1,0.1,0.1,0.1c0,0.1,0,0.2,0,0.3C52.8,45.7,52.8,45.8,52.8,45.9z"/>
	<path class="st1" d="M52.6,52.3c-0.3,0-0.5,0.1-0.6,0.2c-0.1,0.2-0.2,0.4-0.2,0.7c0,0.3,0.1,0.5,0.2,0.7c0.1,0.2,0.3,0.2,0.6,0.2
		c0.3,0,0.5-0.1,0.6-0.2c0.1-0.2,0.2-0.4,0.2-0.7c0-0.3-0.1-0.5-0.2-0.7C53,52.3,52.8,52.3,52.6,52.3z M52.8,53.5
		c0,0.1,0,0.1-0.1,0.1c0,0-0.1,0-0.1,0c-0.1,0-0.1,0-0.1,0c0,0-0.1-0.1-0.1-0.1c0-0.1,0-0.2,0-0.3c0-0.1,0-0.2,0-0.3
		c0-0.1,0-0.1,0.1-0.1c0,0,0.1,0,0.1,0c0.1,0,0.1,0,0.1,0c0,0,0.1,0.1,0.1,0.1c0,0.1,0,0.2,0,0.3C52.8,53.3,52.8,53.4,52.8,53.5z"/>
	<path class="st1" d="M52.3,56.6h0.6v-0.8c-0.2,0-0.4-0.1-0.6-0.2V56.6z"/>
	<path class="st1" d="M51.9,54.8v0.5h0.3v0.4c0.2,0.1,0.4,0.1,0.6,0.2v-1H51.9z"/>
	<path class="st1" d="M58.7,13.7v-0.5c-0.2-0.1-0.4-0.2-0.6-0.3v0.8H58.7z"/>
	<path class="st1" d="M58.4,14.4c-0.3,0-0.5,0.1-0.6,0.2c-0.1,0.2-0.2,0.4-0.2,0.7c0,0.3,0.1,0.5,0.2,0.7c0.1,0.2,0.3,0.2,0.6,0.2
		c0.3,0,0.5-0.1,0.6-0.2c0.1-0.2,0.2-0.4,0.2-0.7c0-0.3-0.1-0.5-0.2-0.7C58.9,14.5,58.7,14.4,58.4,14.4z M58.6,15.6
		c0,0.1,0,0.1-0.1,0.1c0,0-0.1,0-0.1,0c-0.1,0-0.1,0-0.1,0c0,0-0.1-0.1-0.1-0.1c0-0.1,0-0.2,0-0.3c0-0.1,0-0.2,0-0.3
		c0-0.1,0-0.1,0.1-0.1c0,0,0.1,0,0.1,0c0.1,0,0.1,0,0.1,0c0,0,0.1,0.1,0.1,0.1c0,0.1,0,0.2,0,0.3C58.6,15.4,58.6,15.5,58.6,15.6z"/>
	<polygon class="st1" points="58.7,18.7 58.7,16.9 57.8,16.9 57.8,17.4 58.1,17.4 58.1,18.7 	"/>
	<path class="st1" d="M58.4,19.4c-0.3,0-0.5,0.1-0.6,0.2c-0.1,0.2-0.2,0.4-0.2,0.7c0,0.3,0.1,0.5,0.2,0.7c0.1,0.2,0.3,0.2,0.6,0.2
		c0.3,0,0.5-0.1,0.6-0.2c0.1-0.2,0.2-0.4,0.2-0.7c0-0.3-0.1-0.5-0.2-0.7C58.9,19.5,58.7,19.4,58.4,19.4z M58.6,20.6
		c0,0.1,0,0.1-0.1,0.1c0,0-0.1,0-0.1,0c-0.1,0-0.1,0-0.1,0c0,0-0.1-0.1-0.1-0.1c0-0.1,0-0.2,0-0.3c0-0.1,0-0.2,0-0.3
		c0-0.1,0-0.1,0.1-0.1c0,0,0.1,0,0.1,0c0.1,0,0.1,0,0.1,0c0,0,0.1,0.1,0.1,0.1c0,0.1,0,0.2,0,0.3C58.6,20.5,58.6,20.6,58.6,20.6z"/>
	<path class="st1" d="M58.4,22c-0.3,0-0.5,0.1-0.6,0.2c-0.1,0.2-0.2,0.4-0.2,0.7c0,0.3,0.1,0.5,0.2,0.7c0.1,0.2,0.3,0.2,0.6,0.2
		c0.3,0,0.5-0.1,0.6-0.2c0.1-0.2,0.2-0.4,0.2-0.7c0-0.3-0.1-0.5-0.2-0.7C58.9,22,58.7,22,58.4,22z M58.6,23.2c0,0.1,0,0.1-0.1,0.1
		c0,0-0.1,0-0.1,0c-0.1,0-0.1,0-0.1,0c0,0-0.1-0.1-0.1-0.1c0-0.1,0-0.2,0-0.3c0-0.1,0-0.2,0-0.3c0-0.1,0-0.1,0.1-0.1
		c0,0,0.1,0,0.1,0c0.1,0,0.1,0,0.1,0c0,0,0.1,0.1,0.1,0.1c0,0.1,0,0.2,0,0.3C58.6,23,58.6,23.1,58.6,23.2z"/>
	<polygon class="st1" points="58.7,26.3 58.7,24.5 57.8,24.5 57.8,25 58.1,25 58.1,26.3 	"/>
	<path class="st1" d="M58.4,27c-0.3,0-0.5,0.1-0.6,0.2c-0.1,0.2-0.2,0.4-0.2,0.7c0,0.3,0.1,0.5,0.2,0.7c0.1,0.2,0.3,0.2,0.6,0.2
		c0.3,0,0.5-0.1,0.6-0.2c0.1-0.2,0.2-0.4,0.2-0.7c0-0.3-0.1-0.5-0.2-0.7C58.9,27.1,58.7,27,58.4,27z M58.6,28.2c0,0.1,0,0.1-0.1,0.1
		c0,0-0.1,0-0.1,0c-0.1,0-0.1,0-0.1,0c0,0-0.1-0.1-0.1-0.1c0-0.1,0-0.2,0-0.3c0-0.1,0-0.2,0-0.3c0-0.1,0-0.1,0.1-0.1
		c0,0,0.1,0,0.1,0c0.1,0,0.1,0,0.1,0c0,0,0.1,0.1,0.1,0.1c0,0.1,0,0.2,0,0.3C58.6,28,58.6,28.1,58.6,28.2z"/>
	<polygon class="st1" points="58.7,31.3 58.7,29.6 57.8,29.6 57.8,30 58.1,30 58.1,31.3 	"/>
	<path class="st1" d="M58.4,32.1c-0.3,0-0.5,0.1-0.6,0.2c-0.1,0.2-0.2,0.4-0.2,0.7c0,0.3,0.1,0.5,0.2,0.7c0.1,0.2,0.3,0.2,0.6,0.2
		c0.3,0,0.5-0.1,0.6-0.2c0.1-0.2,0.2-0.4,0.2-0.7c0-0.3-0.1-0.5-0.2-0.7C58.9,32.1,58.7,32.1,58.4,32.1z M58.6,33.3
		c0,0.1,0,0.1-0.1,0.1c0,0-0.1,0-0.1,0c-0.1,0-0.1,0-0.1,0c0,0-0.1-0.1-0.1-0.1c0-0.1,0-0.2,0-0.3c0-0.1,0-0.2,0-0.3
		c0-0.1,0-0.1,0.1-0.1c0,0,0.1,0,0.1,0c0.1,0,0.1,0,0.1,0c0,0,0.1,0.1,0.1,0.1c0,0.1,0,0.2,0,0.3C58.6,33.1,58.6,33.2,58.6,33.3z"/>
	<path class="st1" d="M58.4,34.6c-0.3,0-0.5,0.1-0.6,0.2c-0.1,0.2-0.2,0.4-0.2,0.7c0,0.3,0.1,0.5,0.2,0.7c0.1,0.2,0.3,0.2,0.6,0.2
		c0.3,0,0.5-0.1,0.6-0.2c0.1-0.2,0.2-0.4,0.2-0.7c0-0.3-0.1-0.5-0.2-0.7C58.9,34.7,58.7,34.6,58.4,34.6z M58.6,35.8
		c0,0.1,0,0.1-0.1,0.1c0,0-0.1,0-0.1,0c-0.1,0-0.1,0-0.1,0c0,0-0.1-0.1-0.1-0.1c0-0.1,0-0.2,0-0.3c0-0.1,0-0.2,0-0.3
		c0-0.1,0-0.1,0.1-0.1c0,0,0.1,0,0.1,0c0.1,0,0.1,0,0.1,0c0,0,0.1,0.1,0.1,0.1c0,0.1,0,0.2,0,0.3C58.6,35.6,58.6,35.7,58.6,35.8z"/>
	<polygon class="st1" points="58.7,38.9 58.7,37.1 57.8,37.1 57.8,37.6 58.1,37.6 58.1,38.9 	"/>
	<path class="st1" d="M58.4,39.6c-0.3,0-0.5,0.1-0.6,0.2c-0.1,0.2-0.2,0.4-0.2,0.7c0,0.3,0.1,0.5,0.2,0.7c0.1,0.2,0.3,0.2,0.6,0.2
		c0.3,0,0.5-0.1,0.6-0.2c0.1-0.2,0.2-0.4,0.2-0.7c0-0.3-0.1-0.5-0.2-0.7C58.9,39.7,58.7,39.6,58.4,39.6z M58.6,40.8
		c0,0.1,0,0.1-0.1,0.1c0,0-0.1,0-0.1,0c-0.1,0-0.1,0-0.1,0c0,0-0.1-0.1-0.1-0.1c0-0.1,0-0.2,0-0.3c0-0.1,0-0.2,0-0.3
		c0-0.1,0-0.1,0.1-0.1c0,0,0.1,0,0.1,0c0.1,0,0.1,0,0.1,0c0,0,0.1,0.1,0.1,0.1c0,0.1,0,0.2,0,0.3C58.6,40.7,58.6,40.8,58.6,40.8z"/>
	<polygon class="st1" points="58.7,44 58.7,42.2 57.8,42.2 57.8,42.6 58.1,42.6 58.1,44 	"/>
	<path class="st1" d="M58.1,56.6h0.6v-0.2c-0.2,0-0.4,0-0.6,0V56.6z"/>
	<path class="st1" d="M57.8,54.8v0.5h0.3v1.1c0.2,0,0.4,0,0.6,0v-1.6H57.8z"/>
	<path class="st1" d="M58.4,57.3c-0.3,0-0.5,0.1-0.6,0.2c-0.1,0.2-0.2,0.4-0.2,0.7c0,0.3,0.1,0.5,0.2,0.7c0.1,0.2,0.3,0.2,0.6,0.2
		c0.3,0,0.5-0.1,0.6-0.2c0.1-0.2,0.2-0.4,0.2-0.7c0-0.3-0.1-0.5-0.2-0.7C58.9,57.4,58.7,57.3,58.4,57.3z M58.6,58.5
		c0,0.1,0,0.1-0.1,0.1c0,0-0.1,0-0.1,0c-0.1,0-0.1,0-0.1,0c0,0-0.1-0.1-0.1-0.1c0-0.1,0-0.2,0-0.3c0-0.1,0-0.2,0-0.3
		c0-0.1,0-0.1,0.1-0.1c0,0,0.1,0,0.1,0c0.1,0,0.1,0,0.1,0c0,0,0.1,0.1,0.1,0.1c0,0.1,0,0.2,0,0.3C58.6,58.3,58.6,58.4,58.6,58.5z"/>
	<path class="st1" d="M63.6,17.4h0.3v1.3h0.6v-1c-0.3-0.3-0.5-0.6-0.8-0.8h-0.1V17.4z"/>
	<path class="st1" d="M64.2,21.3c0.3,0,0.5-0.1,0.6-0.2c0.1-0.2,0.2-0.4,0.2-0.7c0-0.3-0.1-0.5-0.2-0.7c-0.1-0.2-0.3-0.2-0.6-0.2
		c-0.3,0-0.5,0.1-0.6,0.2c-0.1,0.2-0.2,0.4-0.2,0.7c0,0.3,0.1,0.5,0.2,0.7C63.8,21.2,64,21.3,64.2,21.3z M64,20.1
		c0-0.1,0-0.1,0.1-0.1c0,0,0.1,0,0.1,0c0.1,0,0.1,0,0.1,0c0,0,0.1,0.1,0.1,0.1c0,0.1,0,0.2,0,0.3c0,0.1,0,0.2,0,0.3
		c0,0.1,0,0.1-0.1,0.1c0,0-0.1,0-0.1,0c-0.1,0-0.1,0-0.1,0c0,0-0.1-0.1-0.1-0.1c0-0.1,0-0.2,0-0.3C64,20.2,64,20.1,64,20.1z"/>
	<path class="st1" d="M64.2,23.8c0.3,0,0.5-0.1,0.6-0.2c0.1-0.2,0.2-0.4,0.2-0.7c0-0.3-0.1-0.5-0.2-0.7C64.7,22,64.5,22,64.2,22
		c-0.3,0-0.5,0.1-0.6,0.2c-0.1,0.2-0.2,0.4-0.2,0.7c0,0.3,0.1,0.5,0.2,0.7C63.8,23.7,64,23.8,64.2,23.8z M64,22.6
		c0-0.1,0-0.1,0.1-0.1c0,0,0.1,0,0.1,0c0.1,0,0.1,0,0.1,0c0,0,0.1,0.1,0.1,0.1c0,0.1,0,0.2,0,0.3c0,0.1,0,0.2,0,0.3
		c0,0.1,0,0.1-0.1,0.1c0,0-0.1,0-0.1,0c-0.1,0-0.1,0-0.1,0c0,0-0.1-0.1-0.1-0.1c0-0.1,0-0.2,0-0.3C64,22.8,64,22.7,64,22.6z"/>
	<polygon class="st1" points="64.5,26.3 64.5,24.5 63.6,24.5 63.6,25 63.9,25 63.9,26.3 	"/>
	<path class="st1" d="M64.2,28.8c0.3,0,0.5-0.1,0.6-0.2c0.1-0.2,0.2-0.4,0.2-0.7c0-0.3-0.1-0.5-0.2-0.7c-0.1-0.2-0.3-0.2-0.6-0.2
		c-0.3,0-0.5,0.1-0.6,0.2c-0.1,0.2-0.2,0.4-0.2,0.7c0,0.3,0.1,0.5,0.2,0.7C63.8,28.7,64,28.8,64.2,28.8z M64,27.6
		c0-0.1,0-0.1,0.1-0.1c0,0,0.1,0,0.1,0c0.1,0,0.1,0,0.1,0c0,0,0.1,0.1,0.1,0.1c0,0.1,0,0.2,0,0.3c0,0.1,0,0.2,0,0.3
		c0,0.1,0,0.1-0.1,0.1c0,0-0.1,0-0.1,0c-0.1,0-0.1,0-0.1,0c0,0-0.1-0.1-0.1-0.1c0-0.1,0-0.2,0-0.3C64,27.8,64,27.7,64,27.6z"/>
	<polygon class="st1" points="64.5,31.3 64.5,29.6 63.6,29.6 63.6,30 63.9,30 63.9,31.3 	"/>
	<path class="st1" d="M64.2,33.9c0.3,0,0.5-0.1,0.6-0.2C65,33.5,65,33.3,65,33c0-0.3-0.1-0.5-0.2-0.7c-0.1-0.2-0.3-0.2-0.6-0.2
		c-0.3,0-0.5,0.1-0.6,0.2c-0.1,0.2-0.2,0.4-0.2,0.7c0,0.3,0.1,0.5,0.2,0.7C63.8,33.8,64,33.9,64.2,33.9z M64,32.7
		c0-0.1,0-0.1,0.1-0.1c0,0,0.1,0,0.1,0c0.1,0,0.1,0,0.1,0c0,0,0.1,0.1,0.1,0.1c0,0.1,0,0.2,0,0.3c0,0.1,0,0.2,0,0.3
		c0,0.1,0,0.1-0.1,0.1c0,0-0.1,0-0.1,0c-0.1,0-0.1,0-0.1,0c0,0-0.1-0.1-0.1-0.1c0-0.1,0-0.2,0-0.3C64,32.8,64,32.8,64,32.7z"/>
	<path class="st1" d="M64.2,36.4c0.3,0,0.5-0.1,0.6-0.2C65,36,65,35.8,65,35.5c0-0.3-0.1-0.5-0.2-0.7c-0.1-0.2-0.3-0.2-0.6-0.2
		c-0.3,0-0.5,0.1-0.6,0.2c-0.1,0.2-0.2,0.4-0.2,0.7c0,0.3,0.1,0.5,0.2,0.7C63.8,36.3,64,36.4,64.2,36.4z M64,35.2
		c0-0.1,0-0.1,0.1-0.1c0,0,0.1,0,0.1,0c0.1,0,0.1,0,0.1,0c0,0,0.1,0.1,0.1,0.1c0,0.1,0,0.2,0,0.3c0,0.1,0,0.2,0,0.3
		c0,0.1,0,0.1-0.1,0.1c0,0-0.1,0-0.1,0c-0.1,0-0.1,0-0.1,0c0,0-0.1-0.1-0.1-0.1c0-0.1,0-0.2,0-0.3C64,35.4,64,35.3,64,35.2z"/>
	<polygon class="st1" points="64.5,38.9 64.5,37.1 63.6,37.1 63.6,37.6 63.9,37.6 63.9,38.9 	"/>
	<path class="st1" d="M64.2,51.5c0.3,0,0.5-0.1,0.6-0.2c0.1-0.2,0.2-0.4,0.2-0.7c0-0.3-0.1-0.5-0.2-0.7c-0.1-0.2-0.3-0.2-0.6-0.2
		c-0.3,0-0.5,0.1-0.6,0.2c-0.1,0.2-0.2,0.4-0.2,0.7c0,0.3,0.1,0.5,0.2,0.7C63.8,51.5,64,51.5,64.2,51.5z M64,50.4
		c0-0.1,0-0.1,0.1-0.1c0,0,0.1,0,0.1,0c0.1,0,0.1,0,0.1,0c0,0,0.1,0.1,0.1,0.1c0,0.1,0,0.2,0,0.3c0,0.1,0,0.2,0,0.3
		c0,0.1,0,0.1-0.1,0.1c0,0-0.1,0-0.1,0c-0.1,0-0.1,0-0.1,0c0,0-0.1-0.1-0.1-0.1c0-0.1,0-0.2,0-0.3C64,50.5,64,50.4,64,50.4z"/>
	<path class="st1" d="M64.8,52.5c-0.1-0.2-0.3-0.2-0.6-0.2c-0.3,0-0.5,0.1-0.6,0.2c-0.1,0.2-0.2,0.4-0.2,0.7c0,0.3,0.1,0.5,0.2,0.7
		c0.1,0.2,0.3,0.2,0.6,0.2c0.3,0,0.5-0.1,0.6-0.2c0.1-0.2,0.2-0.4,0.2-0.7C65,52.9,65,52.7,64.8,52.5z M64.4,53.5
		c0,0.1,0,0.1-0.1,0.1c0,0-0.1,0-0.1,0c-0.1,0-0.1,0-0.1,0c0,0-0.1-0.1-0.1-0.1c0-0.1,0-0.2,0-0.3c0-0.1,0-0.2,0-0.3
		c0-0.1,0-0.1,0.1-0.1c0,0,0.1,0,0.1,0c0.1,0,0.1,0,0.1,0c0,0,0.1,0.1,0.1,0.1c0,0.1,0,0.2,0,0.3C64.4,53.3,64.4,53.4,64.4,53.5z"/>
	<path class="st1" d="M63.9,56.6L63.9,56.6c0-0.1,0-0.1,0-0.2V56.6z"/>
	<path class="st1" d="M64.5,54.8h-0.9v0.5h0.3v1.1c0,0.1,0,0.1,0.1,0.2h0.5V54.8z"/>
	<path class="st1" d="M64.2,58.7c-0.1,0-0.1,0-0.1,0c0,0-0.1-0.1-0.1-0.1c0-0.1,0-0.2,0-0.3c0-0.1,0-0.2,0-0.3c0-0.1,0-0.1,0.1-0.1
		c0,0,0.1,0,0.1,0c0-0.2,0-0.3,0-0.4c0,0,0,0,0,0c-0.2,0-0.4,0.1-0.5,0.2c-0.1,0.2-0.2,0.4-0.2,0.7c0,0.3,0.1,0.5,0.2,0.7
		c0.1,0.2,0.3,0.2,0.6,0.2c0,0,0,0,0,0C64.2,59,64.2,58.8,64.2,58.7C64.2,58.7,64.2,58.7,64.2,58.7z"/>
	<path class="st1" d="M65,58.2c0-0.3-0.1-0.5-0.2-0.7c-0.1-0.2-0.3-0.2-0.6-0.2c0,0,0,0-0.1,0c0,0,0,0,0,0c0,0.1,0,0.2,0,0.4
		c0,0,0,0,0,0c0.1,0,0.1,0,0.1,0c0,0,0.1,0.1,0.1,0.1c0,0.1,0,0.2,0,0.3c0,0.1,0,0.2,0,0.3c0,0.1,0,0.1-0.1,0.1c0,0-0.1,0-0.1,0
		c0,0.1,0,0.3,0,0.4c0.3,0,0.5-0.1,0.6-0.2C65,58.7,65,58.5,65,58.2z"/>
	<polygon class="st1" points="40.6,51.5 41.2,51.5 41.2,51.2 40.6,51.4 	"/>
	<path class="st1" d="M64.2,54.1c0.3,0,0.5-0.1,0.6-0.2c0.1-0.2,0.2-0.4,0.2-0.7c0,0,0,0,0-0.1l-1.6,0.4c0,0.1,0.1,0.2,0.2,0.3
		C63.8,54,64,54.1,64.2,54.1z"/>
	<path class="st1" d="M28.6,53.8c0.1,0.2,0.3,0.2,0.6,0.2c0.3,0,0.5-0.1,0.6-0.2c0.1-0.1,0.1-0.2,0.2-0.4l-1.5,0.2
		C28.6,53.7,28.6,53.8,28.6,53.8z"/>
	<path class="st1" d="M16.9,56.4c0.1,0.2,0.3,0.2,0.6,0.2c0.3,0,0.5-0.1,0.6-0.2c0.1-0.2,0.2-0.4,0.2-0.7c0-0.3-0.1-0.5-0.2-0.7
		l-1.4,1C16.8,56.2,16.9,56.3,16.9,56.4z"/>
	<path class="st1" d="M34.2,53.2c0,0.3,0.1,0.5,0.2,0.7c0.1,0.2,0.3,0.2,0.6,0.2c0.3,0,0.5-0.1,0.6-0.2c0.1-0.2,0.2-0.4,0.2-0.7
		c0-0.2,0-0.3-0.1-0.4l-1.5,0.2C34.3,53,34.2,53.1,34.2,53.2z"/>
	<path class="st1" d="M63.6,17.4h0.3v1.3h0.6v-1c2.1,2.3,3.8,5.1,4.7,8.4c-0.4-1.5-1-2.9-1.7-4.2c-1-1.9-2.3-3.6-3.8-5h-0.1V17.4z"
		/>
	<path class="st1" d="M69.8,28.4c0.1,0.6,0.2,1.3,0.3,1.9C70,29.7,69.9,29,69.8,28.4z"/>
	<path class="st1" d="M46.1,9.8h0.3V11c0.2,0,0.4,0.1,0.6,0.1V9.4c0,0,0,0-0.1,0h-0.8V9.8z"/>
	<path class="st1" d="M70.2,36.1c0,0.1,0,0.2,0,0.4C70.2,36.3,70.2,36.2,70.2,36.1z"/>
	<path class="st1" d="M64.8,22.2c-0.1-0.1-0.3-0.2-0.5-0.2c0.2,0.4,0.5,0.8,0.7,1.2c0-0.1,0-0.2,0-0.3C65,22.6,65,22.4,64.8,22.2z"
		/>
	<path class="st1" d="M40.3,9.4v0.5h0.3v0.4c0.2,0,0.4,0,0.6,0V9.4H40.3z"/>
	<path class="st1" d="M64.8,21c0.1-0.2,0.2-0.4,0.2-0.7s-0.1-0.5-0.2-0.7c-0.1-0.2-0.3-0.2-0.6-0.2c-0.3,0-0.5,0.1-0.6,0.2
		c-0.1,0.2-0.2,0.4-0.2,0.7c0,0.1,0,0.3,0.1,0.4c0.1,0.1,0.2,0.2,0.2,0.3c0.1,0.1,0.3,0.2,0.5,0.2C64.5,21.3,64.7,21.2,64.8,21z"/>
	<path class="st1" d="M69.4,26.5c0.2,0.6,0.3,1.2,0.4,1.8C69.7,27.7,69.5,27.1,69.4,26.5z"/>
	<path class="st1" d="M59.2,15.3c0-0.3-0.1-0.5-0.2-0.7c-0.1-0.2-0.3-0.2-0.6-0.2c-0.3,0-0.5,0.1-0.6,0.2c-0.1,0.2-0.2,0.4-0.2,0.7
		c0,0,0,0,0,0.1c0.4,0.2,0.8,0.5,1.2,0.8c0.1,0,0.2-0.1,0.2-0.2C59.1,15.8,59.2,15.6,59.2,15.3z"/>
	<path class="st1" d="M62.6,15.9c0.4,0.3,0.8,0.7,1.1,1C63.3,16.6,63,16.2,62.6,15.9z"/>
	<path class="st1" d="M51.9,11.9v0.5h0.3v0.3c0.2,0.1,0.4,0.2,0.6,0.2v-1H51.9z"/>
	<path class="st1" d="M70.1,30.8c0.1,0.7,0.1,1.3,0.1,2C70.2,32.2,70.2,31.5,70.1,30.8z"/>
	<path class="st1" d="M52,10.9c0.1,0.2,0.3,0.2,0.6,0.2c0.3,0,0.5-0.1,0.6-0.2c0,0,0.1-0.1,0.1-0.1c1.7,0.5,3.3,1.2,4.8,2
		c-3.3-1.8-7.1-2.9-11-3.4c1.6,0.2,3.2,0.5,4.7,0.9C51.8,10.6,51.8,10.8,52,10.9z"/>
	<path class="st1" d="M58.7,13.7v-0.5c1.4,0.8,2.7,1.7,3.9,2.7c-1.4-1.2-2.9-2.2-4.5-3v0.8H58.7z"/>
	<path class="st1" d="M28.6,12.2c0.3-0.1,0.6-0.2,0.9-0.3v0h-0.9c1.8-0.8,3.7-1.4,5.6-1.9c0,0.1,0,0.2,0,0.2c0,0.2,0,0.4,0.1,0.5
		c0.5-0.1,1-0.2,1.5-0.2c0-0.1,0-0.2,0-0.3c0-0.2,0-0.4-0.1-0.6c3.7-0.7,7.5-0.8,11.2-0.3c-7.2-0.9-14.8,0.4-20.8,3.8
		c0,0,0.1,0,0.1,0c0.8-0.4,1.6-0.8,2.4-1.2V12.2z"/>
	<path class="st1" d="M68.7,54.3c0,0.1,0,0.1,0,0.2C68.7,54.5,68.7,54.4,68.7,54.3z"/>
	<path class="st1" d="M34.3,10c-1.9,0.5-3.8,1.1-5.6,1.9h0.9v0c1.7-0.5,3.4-0.9,4.9-1.2c-0.1-0.1-0.1-0.3-0.1-0.5
		C34.2,10.2,34.3,10.1,34.3,10z"/>
	<path class="st1" d="M35.7,9.7c0.1,0.1,0.1,0.3,0.1,0.6c0,0.1,0,0.2,0,0.3c2.4-0.3,3.9-0.4,3.9-0.4s0.3,0,0.8,0V9.8h-0.3V9.4h0.9
		v0.9c1.2,0.1,3,0.3,5.3,0.8V9.8h-0.3V9.4h0.8c0,0,0,0,0,0C43.2,8.9,39.4,9,35.7,9.7z"/>
	<path class="st1" d="M28.6,11.9c-0.8,0.4-1.6,0.8-2.4,1.2c0.8-0.3,1.6-0.6,2.4-0.9V11.9z"/>
	<g>
		<path class="st0" d="M16.7,55.7c0-0.3,0.1-0.5,0.2-0.7c0.1-0.2,0.3-0.2,0.6-0.2c0.3,0,0.5,0.1,0.6,0.2l10.4-1.4
			c-0.1-0.1-0.1-0.3-0.1-0.5c0,0,0,0,0,0c-1.4,0.2-3,0.1-4.6-0.9c-3.2-1.9-4.8-5.7-5.5-8.6c0,0-0.1,0.1-0.1,0.1
			C18,43.9,17.8,44,17.5,44c-0.3,0-0.5-0.1-0.6-0.2c-0.1-0.2-0.2-0.4-0.2-0.7c0-0.3,0.1-0.5,0.2-0.7c0.1-0.2,0.3-0.2,0.6-0.2
			c0.1,0,0.3,0,0.4,0.1c-0.1-0.3-0.1-0.6-0.1-0.8h-0.5v-1.3h-0.3v-0.5h0.6c0-0.2,0-0.4,0-0.4c2.7,3.4,7.6,6.1,11.5,7.9
			c0.1,0,0.1,0,0.2,0c0.3,0,0.5,0.1,0.6,0.2c0.1,0.1,0.1,0.1,0.1,0.2c2.5,1.1,4.3,1.7,4.3,1.7s-1.7,2.3-4.3,3.3
			C30,52.8,30,53,30,53.2c0,0.1,0,0.2,0,0.3l4.3-0.6c0-0.2,0.1-0.3,0.2-0.4c0.1-0.2,0.3-0.2,0.6-0.2c0.3,0,0.5,0.1,0.6,0.2
			c0.1,0.1,0.1,0.1,0.1,0.2l1.6-0.2l3.2-1.1v-1.2h-0.3v-0.5h0.9v1.4l1.2-0.4l3.6,2c0-0.1,0.1-0.2,0.1-0.2c0.1-0.2,0.3-0.2,0.6-0.2
			c0.3,0,0.5,0.1,0.6,0.2c0.1,0.2,0.2,0.4,0.2,0.7c0,0.2,0,0.3-0.1,0.4l2.1,1.1c0.9,0.3,1.8,0.7,2.7,0.9v-0.4h-0.3v-0.5h0.9v1
			c0.5,0.1,1.1,0.2,1.6,0.3l3.3-1v-0.4h0.9v0.1l4.8-1.4c0-0.1-0.1-0.2-0.1-0.4c0-0.3,0.1-0.5,0.2-0.7c0.1-0.2,0.3-0.2,0.6-0.2
			c0.3,0,0.5,0.1,0.6,0.2c0.1,0.1,0.2,0.3,0.2,0.6l1.4-0.4c0.5-3.8,0.8-7.6,1-11.5c0.1-2.4,0.1-4.8,0.1-7.1c0-3.9-0.7-7.2-2-9.9
			c-0.2-0.4-0.4-0.7-0.5-1.1c0,0.2-0.1,0.3-0.2,0.4c-0.1,0.2-0.3,0.2-0.6,0.2c-0.3,0-0.5-0.1-0.6-0.2c-0.1-0.2-0.2-0.4-0.2-0.7
			c0-0.3,0.1-0.5,0.2-0.7C63.8,22,64,22,64.2,22c0,0,0.1,0,0.1,0c-0.2-0.3-0.4-0.6-0.6-0.9c0,0-0.1,0-0.1-0.1
			c-0.1-0.1-0.1-0.2-0.2-0.3c-1.4-1.8-3-3.3-4.7-4.6c-0.1,0-0.2,0.1-0.4,0.1c-0.3,0-0.5-0.1-0.6-0.2c-0.1-0.1-0.2-0.4-0.2-0.6
			c-1.5-1-3.2-1.8-4.8-2.4v0.7h-0.6v-1c-1.8-0.7-3.6-1.2-5.3-1.6v0h-0.6V11c-2.2-0.5-4.1-0.7-5.3-0.8v0.9h-0.6v-0.9
			c-0.5,0-0.8,0-0.8,0s-1.6,0-3.9,0.4c0,0.2-0.1,0.3-0.2,0.4c-0.1,0.2-0.3,0.2-0.6,0.2c-0.3,0-0.5-0.1-0.6-0.2c0,0-0.1-0.1-0.1-0.2
			c-1.5,0.3-3.1,0.6-4.9,1.2v1.7h-0.6v-1.3h-0.3v-0.1c-0.8,0.3-1.6,0.6-2.4,0.9c-0.9,0.5-1.7,1-2.5,1.6v1.4h-0.6v-1
			c-2.1,1.6-3.9,3.5-5.3,5.8v0.2h-0.1c-0.2,0.3-0.3,0.5-0.4,0.8c0.1,0,0.2,0,0.3,0c0.3,0,0.5,0.1,0.6,0.2c0.1,0.2,0.2,0.4,0.2,0.7
			s-0.1,0.5-0.2,0.7c-0.1,0.2-0.3,0.2-0.6,0.2c-0.3,0-0.5-0.1-0.6-0.2c-0.1-0.1-0.2-0.3-0.2-0.6c-1.4,2.9-2.1,6.2-2.1,9.9
			c0,7.7,0.4,15.9,1.8,23.4l0.3-0.2C16.8,55.9,16.7,55.8,16.7,55.7z M22.8,52.3h0.9v1.8h-0.6v-1.3h-0.3V52.3z M47,51.5h-0.6v-1.3
			h-0.3v-0.5H47V51.5z M64.8,51.3c-0.1,0.2-0.3,0.2-0.6,0.2c-0.3,0-0.5-0.1-0.6-0.2c-0.1-0.2-0.2-0.4-0.2-0.7c0-0.3,0.1-0.5,0.2-0.7
			c0.1-0.2,0.3-0.2,0.6-0.2c0.3,0,0.5,0.1,0.6,0.2c0.1,0.2,0.2,0.4,0.2,0.7C65,50.9,65,51.2,64.8,51.3z M63.6,24.5h0.9v1.8h-0.6V25
			h-0.3V24.5z M63.6,27.3c0.1-0.2,0.3-0.2,0.6-0.2c0.3,0,0.5,0.1,0.6,0.2c0.1,0.2,0.2,0.4,0.2,0.7c0,0.3-0.1,0.5-0.2,0.7
			c-0.1,0.2-0.3,0.2-0.6,0.2c-0.3,0-0.5-0.1-0.6-0.2c-0.1-0.2-0.2-0.4-0.2-0.7C63.4,27.6,63.5,27.4,63.6,27.3z M63.6,30v-0.5h0.9
			v1.8h-0.6V30H63.6z M63.6,32.3c0.1-0.2,0.3-0.2,0.6-0.2c0.3,0,0.5,0.1,0.6,0.2C65,32.5,65,32.7,65,33c0,0.3-0.1,0.5-0.2,0.7
			c-0.1,0.2-0.3,0.2-0.6,0.2c-0.3,0-0.5-0.1-0.6-0.2c-0.1-0.2-0.2-0.4-0.2-0.7C63.4,32.7,63.5,32.5,63.6,32.3z M63.6,34.8
			c0.1-0.2,0.3-0.2,0.6-0.2c0.3,0,0.5,0.1,0.6,0.2C65,35,65,35.2,65,35.5S65,36,64.8,36.2c-0.1,0.2-0.3,0.2-0.6,0.2
			c-0.3,0-0.5-0.1-0.6-0.2c-0.1-0.2-0.2-0.4-0.2-0.7C63.4,35.2,63.5,35,63.6,34.8z M63.6,37.6v-0.5h0.9v1.8h-0.6v-1.3H63.6z
			 M57.8,16.9h0.9v1.8h-0.6v-1.3h-0.3V16.9z M57.8,19.7c0.1-0.2,0.3-0.2,0.6-0.2c0.3,0,0.5,0.1,0.6,0.2c0.1,0.2,0.2,0.4,0.2,0.7
			S59.1,20.9,59,21c-0.1,0.2-0.3,0.2-0.6,0.2c-0.3,0-0.5-0.1-0.6-0.2c-0.1-0.2-0.2-0.4-0.2-0.7C57.6,20.1,57.7,19.8,57.8,19.7z
			 M57.8,22.2c0.1-0.2,0.3-0.2,0.6-0.2c0.3,0,0.5,0.1,0.6,0.2c0.1,0.2,0.2,0.4,0.2,0.7s-0.1,0.5-0.2,0.7c-0.1,0.2-0.3,0.2-0.6,0.2
			c-0.3,0-0.5-0.1-0.6-0.2c-0.1-0.2-0.2-0.4-0.2-0.7C57.6,22.6,57.7,22.4,57.8,22.2z M57.8,25v-0.5h0.9v1.8h-0.6V25H57.8z
			 M57.8,27.3c0.1-0.2,0.3-0.2,0.6-0.2c0.3,0,0.5,0.1,0.6,0.2c0.1,0.2,0.2,0.4,0.2,0.7c0,0.3-0.1,0.5-0.2,0.7
			c-0.1,0.2-0.3,0.2-0.6,0.2c-0.3,0-0.5-0.1-0.6-0.2c-0.1-0.2-0.2-0.4-0.2-0.7C57.6,27.6,57.7,27.4,57.8,27.3z M57.8,30v-0.5h0.9
			v1.8h-0.6V30H57.8z M57.8,32.3c0.1-0.2,0.3-0.2,0.6-0.2c0.3,0,0.5,0.1,0.6,0.2c0.1,0.2,0.2,0.4,0.2,0.7c0,0.3-0.1,0.5-0.2,0.7
			c-0.1,0.2-0.3,0.2-0.6,0.2c-0.3,0-0.5-0.1-0.6-0.2c-0.1-0.2-0.2-0.4-0.2-0.7C57.6,32.7,57.7,32.5,57.8,32.3z M57.8,34.8
			c0.1-0.2,0.3-0.2,0.6-0.2c0.3,0,0.5,0.1,0.6,0.2c0.1,0.2,0.2,0.4,0.2,0.7S59.1,36,59,36.2c-0.1,0.2-0.3,0.2-0.6,0.2
			c-0.3,0-0.5-0.1-0.6-0.2c-0.1-0.2-0.2-0.4-0.2-0.7C57.6,35.2,57.7,35,57.8,34.8z M57.8,37.6v-0.5h0.9v1.8h-0.6v-1.3H57.8z
			 M57.8,39.9c0.1-0.2,0.3-0.2,0.6-0.2c0.3,0,0.5,0.1,0.6,0.2c0.1,0.2,0.2,0.4,0.2,0.7s-0.1,0.5-0.2,0.7s-0.3,0.2-0.6,0.2
			c-0.3,0-0.5-0.1-0.6-0.2c-0.1-0.2-0.2-0.4-0.2-0.7C57.6,40.3,57.7,40,57.8,39.9z M57.8,42.6v-0.5h0.9V44h-0.6v-1.3H57.8z M52,14.6
			c0.1-0.2,0.3-0.2,0.6-0.2c0.3,0,0.5,0.1,0.6,0.2c0.1,0.2,0.2,0.4,0.2,0.7s-0.1,0.5-0.2,0.7c-0.1,0.2-0.3,0.2-0.6,0.2
			c-0.3,0-0.5-0.1-0.6-0.2c-0.1-0.2-0.2-0.4-0.2-0.7C51.8,15,51.8,14.8,52,14.6z M51.9,17.4v-0.5h0.9v1.8h-0.6v-1.3H51.9z M52,19.7
			c0.1-0.2,0.3-0.2,0.6-0.2c0.3,0,0.5,0.1,0.6,0.2c0.1,0.2,0.2,0.4,0.2,0.7s-0.1,0.5-0.2,0.7c-0.1,0.2-0.3,0.2-0.6,0.2
			c-0.3,0-0.5-0.1-0.6-0.2c-0.1-0.2-0.2-0.4-0.2-0.7C51.8,20.1,51.8,19.8,52,19.7z M52,22.2c0.1-0.2,0.3-0.2,0.6-0.2
			c0.3,0,0.5,0.1,0.6,0.2c0.1,0.2,0.2,0.4,0.2,0.7s-0.1,0.5-0.2,0.7c-0.1,0.2-0.3,0.2-0.6,0.2c-0.3,0-0.5-0.1-0.6-0.2
			c-0.1-0.2-0.2-0.4-0.2-0.7C51.8,22.6,51.8,22.4,52,22.2z M51.9,25v-0.5h0.9v1.8h-0.6V25H51.9z M52,27.3c0.1-0.2,0.3-0.2,0.6-0.2
			c0.3,0,0.5,0.1,0.6,0.2c0.1,0.2,0.2,0.4,0.2,0.7c0,0.3-0.1,0.5-0.2,0.7c-0.1,0.2-0.3,0.2-0.6,0.2c-0.3,0-0.5-0.1-0.6-0.2
			c-0.1-0.2-0.2-0.4-0.2-0.7C51.8,27.6,51.8,27.4,52,27.3z M51.9,30v-0.5h0.9v1.8h-0.6V30H51.9z M52,32.3c0.1-0.2,0.3-0.2,0.6-0.2
			c0.3,0,0.5,0.1,0.6,0.2c0.1,0.2,0.2,0.4,0.2,0.7c0,0.3-0.1,0.5-0.2,0.7c-0.1,0.2-0.3,0.2-0.6,0.2c-0.3,0-0.5-0.1-0.6-0.2
			c-0.1-0.2-0.2-0.4-0.2-0.7C51.8,32.7,51.8,32.5,52,32.3z M52,34.8c0.1-0.2,0.3-0.2,0.6-0.2c0.3,0,0.5,0.1,0.6,0.2
			c0.1,0.2,0.2,0.4,0.2,0.7s-0.1,0.5-0.2,0.7c-0.1,0.2-0.3,0.2-0.6,0.2c-0.3,0-0.5-0.1-0.6-0.2c-0.1-0.2-0.2-0.4-0.2-0.7
			C51.8,35.2,51.8,35,52,34.8z M51.9,37.6v-0.5h0.9v1.8h-0.6v-1.3H51.9z M52,39.9c0.1-0.2,0.3-0.2,0.6-0.2c0.3,0,0.5,0.1,0.6,0.2
			c0.1,0.2,0.2,0.4,0.2,0.7s-0.1,0.5-0.2,0.7s-0.3,0.2-0.6,0.2c-0.3,0-0.5-0.1-0.6-0.2c-0.1-0.2-0.2-0.4-0.2-0.7
			C51.8,40.3,51.8,40,52,39.9z M51.9,42.6v-0.5h0.9V44h-0.6v-1.3H51.9z M52,44.9c0.1-0.2,0.3-0.2,0.6-0.2c0.3,0,0.5,0.1,0.6,0.2
			c0.1,0.2,0.2,0.4,0.2,0.7s-0.1,0.5-0.2,0.7c-0.1,0.2-0.3,0.2-0.6,0.2c-0.3,0-0.5-0.1-0.6-0.2c-0.1-0.2-0.2-0.4-0.2-0.7
			C51.8,45.3,51.8,45.1,52,44.9z M52.3,48.3v-0.6h-0.3v-0.5h0.9V48c1.4-0.6,3-1.4,4.8-2.3c0,0,0-0.1,0-0.1c0-0.3,0.1-0.5,0.2-0.7
			c0.1-0.2,0.3-0.2,0.6-0.2c0.3,0,0.5,0.1,0.6,0.2c1.8-1,3.5-2.2,5-3.5c-0.1,0-0.3-0.1-0.4-0.2c-0.1-0.2-0.2-0.4-0.2-0.7
			c0-0.3,0.1-0.5,0.2-0.7c0.1-0.2,0.3-0.2,0.6-0.2c0.3,0,0.5,0.1,0.6,0.2C65,40,65,40.2,65,40.4c0.4-0.4,0.7-0.8,1-1.1
			c0,0-0.1,2.7-1.1,5.8c0.1,0.1,0.1,0.3,0.1,0.5c0,0.3-0.1,0.5-0.2,0.7c-0.1,0.1-0.3,0.2-0.4,0.2c-0.1,0.3-0.2,0.5-0.3,0.8h0.4V49
			h-0.6v-1.3h-0.1c-0.9,1.8-2.2,3.5-4.1,4.6c-0.2,0.1-0.5,0.3-0.7,0.4c0.1,0.1,0.1,0.3,0.1,0.5c0,0.3-0.1,0.5-0.2,0.7
			c-0.1,0.2-0.3,0.2-0.6,0.2c-0.3,0-0.5-0.1-0.6-0.2c-0.1-0.2-0.2-0.4-0.2-0.7c0,0,0,0,0,0c-1.7,0.3-3.2,0-4.4-0.6
			c0.1,0.2,0.2,0.4,0.2,0.7c0,0.3-0.1,0.5-0.2,0.7c-0.1,0.2-0.3,0.2-0.6,0.2c-0.3,0-0.5-0.1-0.6-0.2c-0.1-0.2-0.2-0.4-0.2-0.7
			c0-0.3,0.1-0.5,0.2-0.7c0.1-0.2,0.3-0.2,0.6-0.2c0.1,0,0.1,0,0.2,0c-2.1-1.1-3.4-2.9-3.4-2.9S50.5,49,52.3,48.3z M46.1,11.9H47
			v1.8h-0.6v-1.3h-0.3V11.9z M46.1,14.6c0.1-0.2,0.3-0.2,0.6-0.2c0.3,0,0.5,0.1,0.6,0.2c0.1,0.2,0.2,0.4,0.2,0.7s-0.1,0.5-0.2,0.7
			c-0.1,0.2-0.3,0.2-0.6,0.2c-0.3,0-0.5-0.1-0.6-0.2c-0.1-0.2-0.2-0.4-0.2-0.7C45.9,15,46,14.8,46.1,14.6z M46.1,17.2
			c0.1-0.2,0.3-0.2,0.6-0.2c0.3,0,0.5,0.1,0.6,0.2c0.1,0.2,0.2,0.4,0.2,0.7s-0.1,0.5-0.2,0.7s-0.3,0.2-0.6,0.2
			c-0.3,0-0.5-0.1-0.6-0.2c-0.1-0.2-0.2-0.4-0.2-0.7C45.9,17.5,46,17.3,46.1,17.2z M46.1,19.9v-0.5H47v1.8h-0.6v-1.3H46.1z
			 M46.1,22.2c0.1-0.2,0.3-0.2,0.6-0.2c0.3,0,0.5,0.1,0.6,0.2c0.1,0.2,0.2,0.4,0.2,0.7s-0.1,0.5-0.2,0.7c-0.1,0.2-0.3,0.2-0.6,0.2
			c-0.3,0-0.5-0.1-0.6-0.2c-0.1-0.2-0.2-0.4-0.2-0.7C45.9,22.6,46,22.4,46.1,22.2z M46.1,25v-0.5H47v1.8h-0.6V25H46.1z M46.1,27.3
			c0.1-0.2,0.3-0.2,0.6-0.2c0.3,0,0.5,0.1,0.6,0.2c0.1,0.2,0.2,0.4,0.2,0.7c0,0.3-0.1,0.5-0.2,0.7c-0.1,0.2-0.3,0.2-0.6,0.2
			c-0.3,0-0.5-0.1-0.6-0.2c-0.1-0.2-0.2-0.4-0.2-0.7C45.9,27.6,46,27.4,46.1,27.3z M46.1,30v-0.5H47v1.8h-0.6V30H46.1z M46.1,32.3
			c0.1-0.2,0.3-0.2,0.6-0.2c0.3,0,0.5,0.1,0.6,0.2c0.1,0.2,0.2,0.4,0.2,0.7c0,0.3-0.1,0.5-0.2,0.7c-0.1,0.2-0.3,0.2-0.6,0.2
			c-0.3,0-0.5-0.1-0.6-0.2c-0.1-0.2-0.2-0.4-0.2-0.7C45.9,32.7,46,32.5,46.1,32.3z M46.1,35.1v-0.5H47v1.8h-0.6v-1.3H46.1z
			 M46.1,37.4c0.1-0.2,0.3-0.2,0.6-0.2c0.3,0,0.5,0.1,0.6,0.2c0.1,0.2,0.2,0.4,0.2,0.7s-0.1,0.5-0.2,0.7c-0.1,0.2-0.3,0.2-0.6,0.2
			c-0.3,0-0.5-0.1-0.6-0.2c-0.1-0.2-0.2-0.4-0.2-0.7C45.9,37.7,46,37.5,46.1,37.4z M46.1,40.1v-0.5H47v1.8h-0.6v-1.3H46.1z
			 M46.1,42.4c0.1-0.2,0.3-0.2,0.6-0.2c0.3,0,0.5,0.1,0.6,0.2c0.1,0.2,0.2,0.4,0.2,0.7s-0.1,0.5-0.2,0.7C47.2,43.9,47,44,46.7,44
			c-0.3,0-0.5-0.1-0.6-0.2c-0.1-0.2-0.2-0.4-0.2-0.7C45.9,42.8,46,42.6,46.1,42.4z M46.1,45.2v-0.5H47v1.8h-0.6v-1.3H46.1z
			 M46.1,47.4c0.1-0.2,0.3-0.2,0.6-0.2c0.3,0,0.5,0.1,0.6,0.2c0.1,0.2,0.2,0.4,0.2,0.7s-0.1,0.5-0.2,0.7C47.2,48.9,47,49,46.7,49
			c-0.3,0-0.5-0.1-0.6-0.2c-0.1-0.2-0.2-0.4-0.2-0.7C45.9,47.8,46,47.6,46.1,47.4z M40.3,12.1c0.1-0.2,0.3-0.2,0.6-0.2
			c0.3,0,0.5,0.1,0.6,0.2c0.1,0.2,0.2,0.4,0.2,0.7s-0.1,0.5-0.2,0.7c-0.1,0.2-0.3,0.2-0.6,0.2c-0.3,0-0.5-0.1-0.6-0.2
			c-0.1-0.2-0.2-0.4-0.2-0.7C40.1,12.5,40.1,12.3,40.3,12.1z M40.3,14.9v-0.5h0.9v1.8h-0.6v-1.3H40.3z M40.3,17.2
			c0.1-0.2,0.3-0.2,0.6-0.2c0.3,0,0.5,0.1,0.6,0.2c0.1,0.2,0.2,0.4,0.2,0.7s-0.1,0.5-0.2,0.7s-0.3,0.2-0.6,0.2
			c-0.3,0-0.5-0.1-0.6-0.2c-0.1-0.2-0.2-0.4-0.2-0.7C40.1,17.5,40.1,17.3,40.3,17.2z M40.3,19.9v-0.5h0.9v1.8h-0.6v-1.3H40.3z
			 M40.3,22.2c0.1-0.2,0.3-0.2,0.6-0.2c0.3,0,0.5,0.1,0.6,0.2c0.1,0.2,0.2,0.4,0.2,0.7s-0.1,0.5-0.2,0.7c-0.1,0.2-0.3,0.2-0.6,0.2
			c-0.3,0-0.5-0.1-0.6-0.2c-0.1-0.2-0.2-0.4-0.2-0.7C40.1,22.6,40.1,22.4,40.3,22.2z M40.3,27.5V27h0.9v1.8h-0.6v-1.3H40.3z
			 M40.6,26.3V25h-0.3v-0.5h0.9v1.8H40.6z M40.3,29.8c0.1-0.2,0.3-0.2,0.6-0.2c0.3,0,0.5,0.1,0.6,0.2c0.1,0.2,0.2,0.4,0.2,0.7
			c0,0.3-0.1,0.5-0.2,0.7c-0.1,0.2-0.3,0.2-0.6,0.2c-0.3,0-0.5-0.1-0.6-0.2c-0.1-0.2-0.2-0.4-0.2-0.7C40.1,30.2,40.1,29.9,40.3,29.8
			z M40.3,32.5v-0.5h0.9v1.8h-0.6v-1.3H40.3z M40.3,34.8c0.1-0.2,0.3-0.2,0.6-0.2c0.3,0,0.5,0.1,0.6,0.2c0.1,0.2,0.2,0.4,0.2,0.7
			s-0.1,0.5-0.2,0.7c-0.1,0.2-0.3,0.2-0.6,0.2c-0.3,0-0.5-0.1-0.6-0.2c-0.1-0.2-0.2-0.4-0.2-0.7C40.1,35.2,40.1,35,40.3,34.8z
			 M40.3,40.1v-0.5h0.9v1.8h-0.6v-1.3H40.3z M40.6,38.9v-1.3h-0.3v-0.5h0.9v1.8H40.6z M40.3,42.4c0.1-0.2,0.3-0.2,0.6-0.2
			c0.3,0,0.5,0.1,0.6,0.2c0.1,0.2,0.2,0.4,0.2,0.7s-0.1,0.5-0.2,0.7c-0.1,0.2-0.3,0.2-0.6,0.2c-0.3,0-0.5-0.1-0.6-0.2
			c-0.1-0.2-0.2-0.4-0.2-0.7C40.1,42.8,40.1,42.6,40.3,42.4z M40.3,45.2v-0.5h0.9v1.8h-0.6v-1.3H40.3z M40.3,47.4
			c0.1-0.2,0.3-0.2,0.6-0.2c0.3,0,0.5,0.1,0.6,0.2c0.1,0.2,0.2,0.4,0.2,0.7s-0.1,0.5-0.2,0.7c-0.1,0.2-0.3,0.2-0.6,0.2
			c-0.3,0-0.5-0.1-0.6-0.2c-0.1-0.2-0.2-0.4-0.2-0.7C40.1,47.8,40.1,47.6,40.3,47.4z M34.4,11.9h0.9v1.8h-0.6v-1.3h-0.3V11.9z
			 M34.5,14.6c0.1-0.2,0.3-0.2,0.6-0.2c0.3,0,0.5,0.1,0.6,0.2c0.1,0.2,0.2,0.4,0.2,0.7s-0.1,0.5-0.2,0.7c-0.1,0.2-0.3,0.2-0.6,0.2
			c-0.3,0-0.5-0.1-0.6-0.2c-0.1-0.2-0.2-0.4-0.2-0.7C34.2,15,34.3,14.8,34.5,14.6z M34.4,17.4v-0.5h0.9v1.8h-0.6v-1.3H34.4z
			 M34.5,19.7c0.1-0.2,0.3-0.2,0.6-0.2c0.3,0,0.5,0.1,0.6,0.2c0.1,0.2,0.2,0.4,0.2,0.7s-0.1,0.5-0.2,0.7c-0.1,0.2-0.3,0.2-0.6,0.2
			c-0.3,0-0.5-0.1-0.6-0.2c-0.1-0.2-0.2-0.4-0.2-0.7C34.2,20.1,34.3,19.8,34.5,19.7z M34.5,22.2c0.1-0.2,0.3-0.2,0.6-0.2
			c0.3,0,0.5,0.1,0.6,0.2c0.1,0.2,0.2,0.4,0.2,0.7s-0.1,0.5-0.2,0.7c-0.1,0.2-0.3,0.2-0.6,0.2c-0.3,0-0.5-0.1-0.6-0.2
			c-0.1-0.2-0.2-0.4-0.2-0.7C34.2,22.6,34.3,22.4,34.5,22.2z M34.4,25v-0.5h0.9v1.8h-0.6V25H34.4z M34.5,27.3
			c0.1-0.2,0.3-0.2,0.6-0.2c0.3,0,0.5,0.1,0.6,0.2c0.1,0.2,0.2,0.4,0.2,0.7c0,0.3-0.1,0.5-0.2,0.7c-0.1,0.2-0.3,0.2-0.6,0.2
			c-0.3,0-0.5-0.1-0.6-0.2c-0.1-0.2-0.2-0.4-0.2-0.7C34.2,27.6,34.3,27.4,34.5,27.3z M34.4,30v-0.5h0.9v1.8h-0.6V30H34.4z
			 M34.5,32.3c0.1-0.2,0.3-0.2,0.6-0.2c0.3,0,0.5,0.1,0.6,0.2c0.1,0.2,0.2,0.4,0.2,0.7c0,0.3-0.1,0.5-0.2,0.7
			c-0.1,0.2-0.3,0.2-0.6,0.2c-0.3,0-0.5-0.1-0.6-0.2c-0.1-0.2-0.2-0.4-0.2-0.7C34.2,32.7,34.3,32.5,34.5,32.3z M34.5,34.8
			c0.1-0.2,0.3-0.2,0.6-0.2c0.3,0,0.5,0.1,0.6,0.2c0.1,0.2,0.2,0.4,0.2,0.7s-0.1,0.5-0.2,0.7c-0.1,0.2-0.3,0.2-0.6,0.2
			c-0.3,0-0.5-0.1-0.6-0.2c-0.1-0.2-0.2-0.4-0.2-0.7C34.2,35.2,34.3,35,34.5,34.8z M34.4,37.6v-0.5h0.9v1.8h-0.6v-1.3H34.4z
			 M34.5,39.9c0.1-0.2,0.3-0.2,0.6-0.2c0.3,0,0.5,0.1,0.6,0.2c0.1,0.2,0.2,0.4,0.2,0.7s-0.1,0.5-0.2,0.7s-0.3,0.2-0.6,0.2
			c-0.3,0-0.5-0.1-0.6-0.2c-0.1-0.2-0.2-0.4-0.2-0.7C34.2,40.3,34.3,40,34.5,39.9z M34.4,42.6v-0.5h0.9V44h-0.6v-1.3H34.4z
			 M34.5,44.9c0.1-0.2,0.3-0.2,0.6-0.2c0.3,0,0.5,0.1,0.6,0.2c0.1,0.2,0.2,0.4,0.2,0.7s-0.1,0.5-0.2,0.7c-0.1,0.2-0.3,0.2-0.6,0.2
			c-0.3,0-0.5-0.1-0.6-0.2c-0.1-0.2-0.2-0.4-0.2-0.7C34.2,45.3,34.3,45.1,34.5,44.9z M34.4,47.7v-0.5h0.9V49h-0.6v-1.3H34.4z
			 M34.5,50c0.1-0.2,0.3-0.2,0.6-0.2c0.3,0,0.5,0.1,0.6,0.2c0.1,0.2,0.2,0.4,0.2,0.7c0,0.3-0.1,0.5-0.2,0.7
			c-0.1,0.2-0.3,0.2-0.6,0.2c-0.3,0-0.5-0.1-0.6-0.2c-0.1-0.2-0.2-0.4-0.2-0.7C34.2,50.4,34.3,50.1,34.5,50z M29.5,46.5h-0.6v-1.3
			h-0.3v-0.5h0.9V46.5z M28.6,14.6c0.1-0.2,0.3-0.2,0.6-0.2c0.3,0,0.5,0.1,0.6,0.2C30,14.8,30,15,30,15.3S30,15.8,29.8,16
			c-0.1,0.2-0.3,0.2-0.6,0.2c-0.3,0-0.5-0.1-0.6-0.2c-0.1-0.2-0.2-0.4-0.2-0.7C28.4,15,28.5,14.8,28.6,14.6z M28.6,17.2
			c0.1-0.2,0.3-0.2,0.6-0.2c0.3,0,0.5,0.1,0.6,0.2c0.1,0.2,0.2,0.4,0.2,0.7s-0.1,0.5-0.2,0.7s-0.3,0.2-0.6,0.2
			c-0.3,0-0.5-0.1-0.6-0.2c-0.1-0.2-0.2-0.4-0.2-0.7C28.4,17.5,28.5,17.3,28.6,17.2z M28.6,19.9v-0.5h0.9v1.8h-0.6v-1.3H28.6z
			 M28.6,22.2C28.8,22,29,22,29.2,22c0.3,0,0.5,0.1,0.6,0.2c0.1,0.2,0.2,0.4,0.2,0.7s-0.1,0.5-0.2,0.7c-0.1,0.2-0.3,0.2-0.6,0.2
			c-0.3,0-0.5-0.1-0.6-0.2c-0.1-0.2-0.2-0.4-0.2-0.7C28.4,22.6,28.5,22.4,28.6,22.2z M28.6,25v-0.5h0.9v1.8h-0.6V25H28.6z
			 M28.6,27.3c0.1-0.2,0.3-0.2,0.6-0.2c0.3,0,0.5,0.1,0.6,0.2c0.1,0.2,0.2,0.4,0.2,0.7c0,0.3-0.1,0.5-0.2,0.7
			c-0.1,0.2-0.3,0.2-0.6,0.2c-0.3,0-0.5-0.1-0.6-0.2c-0.1-0.2-0.2-0.4-0.2-0.7C28.4,27.6,28.5,27.4,28.6,27.3z M28.6,30v-0.5h0.9
			v1.8h-0.6V30H28.6z M28.6,32.3c0.1-0.2,0.3-0.2,0.6-0.2c0.3,0,0.5,0.1,0.6,0.2C30,32.5,30,32.7,30,33c0,0.3-0.1,0.5-0.2,0.7
			c-0.1,0.2-0.3,0.2-0.6,0.2c-0.3,0-0.5-0.1-0.6-0.2c-0.1-0.2-0.2-0.4-0.2-0.7C28.4,32.7,28.5,32.5,28.6,32.3z M28.6,35.1v-0.5h0.9
			v1.8h-0.6v-1.3H28.6z M28.6,37.4c0.1-0.2,0.3-0.2,0.6-0.2c0.3,0,0.5,0.1,0.6,0.2C30,37.5,30,37.7,30,38s-0.1,0.5-0.2,0.7
			c-0.1,0.2-0.3,0.2-0.6,0.2c-0.3,0-0.5-0.1-0.6-0.2c-0.1-0.2-0.2-0.4-0.2-0.7C28.4,37.7,28.5,37.5,28.6,37.4z M28.6,40.1v-0.5h0.9
			v1.8h-0.6v-1.3H28.6z M28.6,42.4c0.1-0.2,0.3-0.2,0.6-0.2c0.3,0,0.5,0.1,0.6,0.2c0.1,0.2,0.2,0.4,0.2,0.7s-0.1,0.5-0.2,0.7
			c-0.1,0.2-0.3,0.2-0.6,0.2c-0.3,0-0.5-0.1-0.6-0.2c-0.1-0.2-0.2-0.4-0.2-0.7C28.4,42.8,28.5,42.6,28.6,42.4z M22.8,17.2
			c0.1-0.2,0.3-0.2,0.6-0.2c0.3,0,0.5,0.1,0.6,0.2c0.1,0.2,0.2,0.4,0.2,0.7s-0.1,0.5-0.2,0.7c-0.1,0.2-0.3,0.2-0.6,0.2
			c-0.3,0-0.5-0.1-0.6-0.2c-0.1-0.2-0.2-0.4-0.2-0.7C22.6,17.5,22.6,17.3,22.8,17.2z M22.8,19.9v-0.5h0.9v1.8h-0.6v-1.3H22.8z
			 M22.8,22.2c0.1-0.2,0.3-0.2,0.6-0.2c0.3,0,0.5,0.1,0.6,0.2c0.1,0.2,0.2,0.4,0.2,0.7s-0.1,0.5-0.2,0.7c-0.1,0.2-0.3,0.2-0.6,0.2
			c-0.3,0-0.5-0.1-0.6-0.2c-0.1-0.2-0.2-0.4-0.2-0.7C22.6,22.6,22.6,22.4,22.8,22.2z M22.8,27.5V27h0.9v1.8h-0.6v-1.3H22.8z
			 M23.1,26.3V25h-0.3v-0.5h0.9v1.8H23.1z M22.8,29.8c0.1-0.2,0.3-0.2,0.6-0.2c0.3,0,0.5,0.1,0.6,0.2c0.1,0.2,0.2,0.4,0.2,0.7
			c0,0.3-0.1,0.5-0.2,0.7c-0.1,0.2-0.3,0.2-0.6,0.2c-0.3,0-0.5-0.1-0.6-0.2c-0.1-0.2-0.2-0.4-0.2-0.7C22.6,30.2,22.6,29.9,22.8,29.8
			z M22.8,32.5v-0.5h0.9v1.8h-0.6v-1.3H22.8z M22.8,34.8c0.1-0.2,0.3-0.2,0.6-0.2c0.3,0,0.5,0.1,0.6,0.2c0.1,0.2,0.2,0.4,0.2,0.7
			S24.1,36,24,36.2c-0.1,0.2-0.3,0.2-0.6,0.2c-0.3,0-0.5-0.1-0.6-0.2c-0.1-0.2-0.2-0.4-0.2-0.7C22.6,35.2,22.6,35,22.8,34.8z
			 M22.8,40.1v-0.5h0.9v1.8h-0.6v-1.3H22.8z M23.1,38.9v-1.3h-0.3v-0.5h0.9v1.8H23.1z M22.8,42.4c0.1-0.2,0.3-0.2,0.6-0.2
			c0.3,0,0.5,0.1,0.6,0.2c0.1,0.2,0.2,0.4,0.2,0.7s-0.1,0.5-0.2,0.7c-0.1,0.2-0.3,0.2-0.6,0.2c-0.3,0-0.5-0.1-0.6-0.2
			c-0.1-0.2-0.2-0.4-0.2-0.7C22.6,42.8,22.6,42.6,22.8,42.4z M17.8,38.9h-0.6v-1.3h-0.3v-0.5h0.9V38.9z M16.9,24.5h0.9v1.8h-0.6V25
			h-0.3V24.5z M16.9,27h0.9v1.8h-0.6v-1.3h-0.3V27z M16.9,29.8c0.1-0.2,0.3-0.2,0.6-0.2c0.3,0,0.5,0.1,0.6,0.2
			c0.1,0.2,0.2,0.4,0.2,0.7c0,0.3-0.1,0.5-0.2,0.7c-0.1,0.2-0.3,0.2-0.6,0.2c-0.3,0-0.5-0.1-0.6-0.2c-0.1-0.2-0.2-0.4-0.2-0.7
			C16.7,30.2,16.8,29.9,16.9,29.8z M16.9,32.5v-0.5h0.9v1.8h-0.6v-1.3H16.9z M16.9,34.8c0.1-0.2,0.3-0.2,0.6-0.2
			c0.3,0,0.5,0.1,0.6,0.2c0.1,0.2,0.2,0.4,0.2,0.7s-0.1,0.5-0.2,0.7c-0.1,0.2-0.3,0.2-0.6,0.2c-0.3,0-0.5-0.1-0.6-0.2
			c-0.1-0.2-0.2-0.4-0.2-0.7C16.7,35.2,16.8,35,16.9,34.8z M17.8,54.1h-0.6v-1.3h-0.3v-0.5h0.9V54.1z M17.8,51.5h-0.6v-1.3h-0.3
			v-0.5h0.9V51.5z M16.9,44.7h0.9v1.8h-0.6v-1.3h-0.3V44.7z M16.9,47.4c0.1-0.2,0.3-0.2,0.6-0.2c0.3,0,0.5,0.1,0.6,0.2
			c0.1,0.2,0.2,0.4,0.2,0.7s-0.1,0.5-0.2,0.7C18,48.9,17.8,49,17.5,49c-0.3,0-0.5-0.1-0.6-0.2c-0.1-0.2-0.2-0.4-0.2-0.7
			C16.7,47.8,16.8,47.6,16.9,47.4z"/>
		<path class="st1" d="M52.3,12.7v-0.3h-0.3v-0.5h0.9v1c1.6,0.6,3.2,1.4,4.8,2.4c0,0,0,0,0-0.1c0-0.3,0.1-0.5,0.2-0.7
			c0.1-0.2,0.3-0.2,0.6-0.2c0.3,0,0.5,0.1,0.6,0.2c0.1,0.2,0.2,0.4,0.2,0.7S59.1,15.8,59,16c-0.1,0.1-0.2,0.1-0.2,0.2
			c1.7,1.3,3.4,2.8,4.7,4.6c0-0.1-0.1-0.2-0.1-0.4c0-0.3,0.1-0.5,0.2-0.7c0.1-0.2,0.3-0.2,0.6-0.2c0.3,0,0.5,0.1,0.6,0.2
			c0.1,0.2,0.2,0.4,0.2,0.7S65,20.9,64.8,21c-0.1,0.2-0.3,0.2-0.6,0.2c-0.2,0-0.4-0.1-0.5-0.2c0.2,0.3,0.4,0.6,0.6,0.9
			c0.2,0,0.4,0.1,0.5,0.2c0.1,0.2,0.2,0.4,0.2,0.7c0,0.1,0,0.2,0,0.3c0.2,0.4,0.4,0.7,0.5,1.1c1.3,2.7,2,6,2,9.9
			c0,2.3,0,4.7-0.1,7.1c-0.2,3.8-0.5,7.7-1,11.5l2.6-0.7c0.2-1.8,0.5-3.7,0.6-5.6c0.3-3.3,0.4-6.6,0.5-9.9c0-0.1,0-0.2,0-0.4
			c0-1.1,0-2.2,0-3.2c0-0.7,0-1.4-0.1-2c0-0.2,0-0.3,0-0.5c-0.1-0.7-0.1-1.3-0.3-1.9c0,0,0,0,0,0c-0.1-0.6-0.3-1.2-0.4-1.8
			c0-0.1-0.1-0.3-0.1-0.4c-1-3.3-2.6-6.1-4.7-8.4v1h-0.6v-1.3h-0.3v-0.5h0.1c0,0,0,0,0,0c-0.4-0.4-0.7-0.7-1.1-1c0,0,0,0,0,0
			c-1.2-1-2.5-1.9-3.9-2.7v0.5h-0.6v-0.8c0,0,0,0,0,0c-1.5-0.8-3.1-1.5-4.8-2c0,0.1-0.1,0.1-0.1,0.1c-0.1,0.2-0.3,0.2-0.6,0.2
			c-0.3,0-0.5-0.1-0.6-0.2c-0.1-0.1-0.2-0.3-0.2-0.6c-1.5-0.4-3.1-0.7-4.7-0.9c0,0,0,0,0,0v1.7C48.6,11.5,50.4,12,52.3,12.7z"/>
		<g>
			<path class="st2" d="M30.4,30.3v1.1l-2.3,0.9l2.3,0.9v1.1L27,33v-1.3L30.4,30.3z"/>
			<path class="st2" d="M35.8,29.6h1.5v5.1h-1.4l-2-2.6v2.6h-1.5v-5.1h1.4l2,2.6V29.6z"/>
			<path class="st2" d="M38.1,29.6h1.8l1.3,2.7l1.3-2.7h1.8v5.1h-1.5v-2.8l-1,2.3h-1.1l-1-2.3v2.8h-1.5V29.6z"/>
			<path class="st2" d="M48.6,29.9c0.4,0.2,0.7,0.5,1,0.9c0.2,0.4,0.3,0.8,0.3,1.3c0,0.5-0.1,1-0.3,1.3c-0.2,0.4-0.6,0.7-1,0.9
				c-0.4,0.2-0.9,0.3-1.5,0.3h-2.2v-5.1h2.3C47.7,29.6,48.2,29.7,48.6,29.9z M48,33c0.2-0.2,0.3-0.5,0.3-0.9c0-0.4-0.1-0.7-0.3-0.9
				c-0.2-0.2-0.5-0.3-0.8-0.3h-0.6v2.5h0.6C47.5,33.4,47.8,33.2,48,33z"/>
			<path class="st2" d="M53.5,28.8h1.4l-2.4,6.6h-1.4L53.5,28.8z"/>
			<path class="st2" d="M54.4,34.2v-1.1l2.3-0.9l-2.3-0.9v-1.1l3.3,1.3v1.3L54.4,34.2z"/>
		</g>
		<path class="st3" d="M32.5,12.7c0.8-0.1,1.6,0.4,1.7,1.2c0.2,0.8-0.4,1.6-1.2,1.7c-0.3,0.1-0.7,0.2-1,0.2c-0.3,0.1-0.7,0.2-1,0.3
			c-0.8,0.2-1.6-0.2-1.9-1c-0.2-0.8,0.2-1.6,1-1.9c0.4-0.1,0.8-0.2,1.2-0.3C31.8,12.9,32.2,12.8,32.5,12.7L32.5,12.7z M25.5,15.8
			c0.7-0.5,1.6-0.3,2,0.3c0.5,0.7,0.3,1.5-0.3,2c-1,0.8-2,1.7-2.9,3c-0.7,1.1-1.4,2.4-1.9,3.9c-0.2,0.8-1,1.2-1.8,1
			c-0.8-0.2-1.2-1-1-1.8c0.5-1.9,1.3-3.4,2.2-4.7C23,18,24.2,16.8,25.5,15.8L25.5,15.8z"/>
		<path class="st4" d="M70,20.5c0,0-8,21.3-27.6,25.6c-19.6-4.3-27.6-25.6-27.6-25.6c-8.7,24-0.4,39,6.3,40.6
			c6.7,1.5,16.2-5.1,17.6-7c1.4-1.9,3.7-1.7,3.7-1.7s2.3-0.2,3.7,1.7c1.4,1.9,10.9,8.4,17.6,7C70.4,59.6,78.7,44.5,70,20.5z
			 M23.7,52.2c-5.8-3.4-6.2-12.9-6.2-12.9c4.7,5.9,16.7,10.1,16.7,10.1S29.5,55.7,23.7,52.2z M59.7,52.2c-5.8,3.4-10.4-2.9-10.4-2.9
			s12-4.2,16.7-10.1C66,39.3,65.5,48.8,59.7,52.2z"/>
	</g>
	<path class="st5" d="M64.2,58.3c0,0.1,0,0.2,0,0.3s0,0.2,0,0.3s0,0.1,0.1,0.1h0.1l0,0c0-0.4,0-0.7,0-1h-0.1
		C64.2,58.2,64.2,58.3,64.2,58.3z"/>
	<path class="st5" d="M35,10.1C35,10.1,35,10.2,35,10.1c0.1,0,0.1,0,0.2,0h-0.1C35.1,10.1,35,10.1,35,10.1z"/>
	<path class="st6" d="M64.5,59.1L64.5,59.1c0.1-0.2,0.1-0.3,0.1-0.4s0-0.2,0-0.3s0-0.1-0.1-0.1h-0.1l0,0c0,0.3,0,0.6,0,1
		C64.4,59.1,64.5,59.1,64.5,59.1z"/>
	<path class="st7" d="M47.1,9.7L47.1,9.7L47.1,9.7L47.1,9.7z"/>
	<path class="st7" d="M64.1,57L64.1,57c0-0.1,0-0.1,0-0.2V57z"/>
	<path class="st7" d="M64.4,59.1C64.3,59.1,64.3,59.1,64.4,59.1L64.2,59c0-0.1,0-0.2,0-0.3s0-0.2,0-0.3s0-0.1,0.1-0.1h0.1
		c0-0.2,0-0.3,0-0.4l0,0c-0.2,0-0.4,0.1-0.5,0.2c-0.1,0.2-0.2,0.4-0.2,0.7s0.1,0.5,0.2,0.7c0.1,0.2,0.3,0.2,0.6,0.2l0,0
		C64.4,59.4,64.4,59.2,64.4,59.1L64.4,59.1z"/>
	<path class="st7" d="M65.2,58.6c0-0.3-0.1-0.5-0.2-0.7s-0.3-0.2-0.6-0.2h-0.1l0,0c0,0.1,0,0.2,0,0.4l0,0c0.1,0,0.1,0,0.1,0l0.1,0.1
		c0,0.1,0,0.2,0,0.3s0,0.2,0,0.3s0,0.1-0.1,0.1h-0.1c0,0.1,0,0.3,0,0.4c0.3,0,0.5-0.1,0.6-0.2C65.1,59.1,65.2,58.9,65.2,58.6z"/>
	<path class="st5" d="M64,58.1c0,0.1,0,0.2,0,0.3c0,0.1,0,0.2,0,0.3c0,0.1,0,0.1,0.1,0.1c0,0,0.1,0,0.1,0c0,0,0,0,0,0
		c0-0.4,0-0.7,0-1c0,0-0.1,0-0.1,0C64.1,58,64.1,58,64,58.1z"/>
	<path class="st5" d="M34.9,10C34.9,10,34.9,10,34.9,10c0.1,0,0.1,0,0.2,0c0,0-0.1,0-0.1,0C35,9.9,35,9.9,34.9,10z"/>
	<path class="st0" d="M64.4,58.8c0,0,0.1-0.1,0.1-0.1c0-0.1,0-0.2,0-0.3c0-0.1,0-0.2,0-0.3c0-0.1,0-0.1-0.1-0.1c0,0-0.1,0-0.1,0
		c0,0,0,0,0,0c0,0.3,0,0.6,0,1C64.3,58.8,64.3,58.8,64.4,58.8z"/>
	<path class="st0" d="M69.8,28.5C69.8,28.5,69.8,28.5,69.8,28.5C69.8,28.5,69.8,28.5,69.8,28.5z"/>
	<path class="st0" d="M70.1,30.5c0,0.2,0,0.3,0,0.5C70.1,30.8,70.1,30.6,70.1,30.5z"/>
	<path class="st0" d="M47,9.5C46.9,9.5,46.9,9.5,47,9.5C46.9,9.5,46.9,9.5,47,9.5L47,9.5z"/>
	<path class="st0" d="M47,9.5L47,9.5C47,9.5,47,9.5,47,9.5C47,9.5,47,9.5,47,9.5z"/>
	<path class="st0" d="M69.3,26.3c0,0.1,0.1,0.3,0.1,0.4C69.3,26.6,69.3,26.4,69.3,26.3z"/>
	<path class="st0" d="M68.7,54.5c0.1-0.8,0.2-1.6,0.4-2.4l0,0C68.9,52.9,68.8,53.7,68.7,54.5z"/>
	<path class="st8" d="M68.4,24.1c0.9,3,1.5,5.8,1.8,8.5c0.8,6.1,0.4,11.3-0.7,15.5c-1.2,4.5-3.1,7.8-5.3,9.8c-1.2,1.1-2.4,1.8-3.6,2
		c-2.2,0.5-4.8,0.1-7.3-0.7c3.3,1.6,7.2,2.7,10.4,2c0.2,0,0.3-0.1,0.5-0.2c1.2-0.4,2.6-1.3,3.8-2.6c5.2-5.5,8.9-18.9,2-37.8
		c0,0-0.5,1.3-1.5,3.3C68.4,24,68.4,24.1,68.4,24.1L68.4,24.1z"/>
</g>
</svg>
