<?xml version="1.0" encoding="utf-8"?>
<!-- Generator: Adobe Illustrator 22.1.0, SVG Export Plug-In . SVG Version: 6.00 Build 0)  -->
<svg version="1.1" id="Layer_1" xmlns="http://www.w3.org/2000/svg" xmlns:xlink="http://www.w3.org/1999/xlink" x="0px" y="0px"
	 viewBox="0 0 85 85" style="enable-background:new 0 0 85 85;" xml:space="preserve">
<style type="text/css">
	.st0{fill:url(#SVGID_1_);}
	.st1{fill:url(#SVGID_2_);}
	.st2{fill:url(#SVGID_3_);}
</style>
<g>
	<linearGradient id="SVGID_1_" gradientUnits="userSpaceOnUse" x1="65.7072" y1="81.5052" x2="16.643" y2="-0.9873">
		<stop  offset="0.1385" style="stop-color:#B9CC33"/>
		<stop  offset="0.8718" style="stop-color:#ED9A21"/>
	</linearGradient>
	<path class="st0" d="M42.5,1.2C19.7,1.2,1.2,19.7,1.2,42.5c0,22.8,18.5,41.3,41.3,41.3c22.8,0,41.3-18.5,41.3-41.3
		C83.8,19.7,65.3,1.2,42.5,1.2z M67.8,43.5c0,14-11.3,25.3-25.3,25.3c-14,0-25.3-11.3-25.3-25.3s11.3-25.3,25.3-25.3H55v-2h8.7v2
		h4.1V43.5z"/>
	<linearGradient id="SVGID_2_" gradientUnits="userSpaceOnUse" x1="84.9735" y1="70.0462" x2="35.9093" y2="-12.4464">
		<stop  offset="0.1385" style="stop-color:#B9CC33"/>
		<stop  offset="0.8718" style="stop-color:#ED9A21"/>
	</linearGradient>
	<circle class="st1" cx="59.2" cy="26.8" r="2.8"/>
	<linearGradient id="SVGID_3_" gradientUnits="userSpaceOnUse" x1="66.8487" y1="80.8262" x2="17.7845" y2="-1.6663">
		<stop  offset="0.1385" style="stop-color:#B9CC33"/>
		<stop  offset="0.8718" style="stop-color:#ED9A21"/>
	</linearGradient>
	<path class="st2" d="M34.5,43.3c0,4.5,3.7,8.2,8.2,8.2c4.5,0,8.2-3.7,8.2-8.2v-8.2h-8.2C38.2,35.1,34.5,38.7,34.5,43.3z M45.5,43.3
		c0,1.5-1.2,2.8-2.8,2.8c-1.5,0-2.8-1.2-2.8-2.8s1.2-2.8,2.8-2.8C44.3,40.5,45.5,41.7,45.5,43.3z"/>
</g>
</svg>
